<svg id="svg" version="1.1" xmlns="http://www.w3.org/2000/svg" xmlns:xlink="http://www.w3.org/1999/xlink" width="400" height="612.48" viewBox="0, 0, 400,612.48"><g id="svgg"><path id="path0" d="M280.800 34.000 C 280.800 34.220,280.170 34.400,279.400 34.400 C 278.479 34.400,278.000 34.588,278.000 34.950 C 278.000 35.427,275.954 36.206,275.100 36.054 C 274.935 36.024,274.800 36.274,274.800 36.609 C 274.800 36.943,274.305 37.435,273.700 37.700 C 273.095 37.966,272.456 38.412,272.280 38.692 C 272.104 38.971,271.609 39.200,271.180 39.200 C 270.751 39.200,270.400 39.355,270.400 39.545 C 270.400 39.735,269.963 40.328,269.428 40.862 C 268.894 41.397,268.339 42.304,268.195 42.879 C 268.046 43.473,267.566 44.020,267.084 44.146 C 266.617 44.268,266.356 44.489,266.504 44.637 C 266.652 44.785,266.370 45.223,265.878 45.610 C 265.386 45.997,264.735 46.947,264.431 47.721 C 264.081 48.613,263.681 49.053,263.339 48.921 C 262.972 48.780,262.800 49.047,262.800 49.757 C 262.800 50.331,262.620 50.800,262.400 50.800 C 262.180 50.800,262.000 51.129,262.000 51.530 C 262.000 51.932,261.548 52.685,260.996 53.203 C 260.374 53.788,260.076 54.410,260.213 54.841 C 260.359 55.301,260.169 55.619,259.652 55.783 C 259.073 55.967,258.801 56.542,258.600 58.000 C 258.397 59.475,258.129 60.032,257.531 60.222 C 256.921 60.415,256.789 60.703,256.974 61.438 C 257.110 61.983,257.038 62.400,256.808 62.400 C 256.583 62.400,256.400 62.850,256.400 63.400 C 256.400 63.950,256.209 64.400,255.976 64.400 C 255.743 64.400,255.664 64.580,255.800 64.800 C 255.936 65.020,255.857 65.200,255.624 65.200 C 255.391 65.200,255.200 65.729,255.200 66.376 C 255.200 67.023,255.020 67.664,254.800 67.800 C 254.580 67.936,254.400 68.465,254.400 68.975 C 254.400 69.485,254.167 70.095,253.883 70.331 C 253.599 70.567,253.321 71.444,253.266 72.280 C 253.210 73.116,252.993 73.860,252.782 73.933 C 252.572 74.007,252.400 74.777,252.400 75.646 C 252.400 76.718,252.196 77.303,251.766 77.468 C 251.256 77.664,251.237 77.777,251.666 78.050 C 252.020 78.274,252.042 78.390,251.730 78.394 C 251.427 78.398,251.161 79.672,250.979 81.989 C 250.749 84.935,250.570 85.619,249.983 85.805 C 249.345 86.008,248.311 94.543,248.732 96.130 C 248.780 96.311,248.656 96.358,248.455 96.234 C 247.909 95.896,247.497 97.548,247.567 99.800 C 247.612 101.272,247.521 101.642,247.221 101.200 C 246.929 100.772,246.809 101.687,246.800 104.400 C 246.793 106.631,246.648 107.980,246.449 107.666 C 245.959 106.892,245.612 108.457,245.605 111.476 C 245.602 112.838,245.420 114.064,245.200 114.200 C 244.980 114.336,244.800 115.682,244.800 117.190 C 244.800 118.956,244.630 119.990,244.324 120.092 C 244.043 120.186,243.777 121.350,243.677 122.925 C 243.583 124.396,243.348 125.600,243.153 125.600 C 242.959 125.600,242.821 125.735,242.847 125.900 C 243.075 127.343,242.697 130.846,242.267 131.276 C 241.974 131.569,241.699 132.776,241.658 133.958 C 241.616 135.139,241.466 136.293,241.325 136.521 C 241.184 136.749,241.107 137.896,241.155 139.068 C 241.207 140.347,241.073 141.200,240.821 141.200 C 240.589 141.200,240.421 141.335,240.447 141.500 C 240.569 142.268,240.366 142.826,240.039 142.624 C 239.839 142.500,239.549 144.477,239.387 147.074 C 239.157 150.746,238.940 151.912,238.373 152.521 C 237.795 153.141,237.693 153.728,237.862 155.448 C 238.001 156.865,237.924 157.600,237.637 157.600 C 237.369 157.600,237.200 158.541,237.200 160.029 C 237.200 161.654,237.002 162.656,236.600 163.057 C 236.191 163.466,236.000 164.476,236.000 166.229 C 236.000 167.676,235.825 168.800,235.600 168.800 C 235.371 168.800,235.200 170.000,235.200 171.600 C 235.200 173.304,235.034 174.400,234.776 174.400 C 234.543 174.400,234.464 174.580,234.600 174.800 C 234.736 175.020,234.657 175.200,234.424 175.200 C 234.173 175.200,234.000 176.178,234.000 177.600 C 234.000 178.920,233.840 180.000,233.644 180.000 C 233.449 180.000,233.297 180.225,233.307 180.500 C 233.421 183.549,233.113 186.430,232.622 186.921 C 232.221 187.322,232.020 188.557,231.967 190.950 C 231.925 192.847,231.769 194.400,231.619 194.400 C 231.469 194.400,231.422 195.390,231.515 196.600 C 231.685 198.823,230.423 199.967,229.746 198.202 C 229.619 197.874,229.387 197.684,229.229 197.782 C 229.072 197.879,228.453 197.705,227.855 197.395 C 227.257 197.084,226.065 196.789,225.208 196.738 C 224.350 196.688,223.726 196.520,223.822 196.365 C 224.092 195.928,222.902 195.600,221.047 195.600 C 220.119 195.600,219.118 195.375,218.821 195.100 C 218.384 194.694,218.342 194.712,218.600 195.200 C 218.858 195.688,218.816 195.706,218.379 195.300 C 217.724 194.692,210.968 194.605,210.600 195.200 C 210.464 195.420,209.485 195.600,208.425 195.600 C 207.200 195.600,206.317 195.819,206.000 196.200 C 205.726 196.530,204.894 196.800,204.151 196.800 C 203.408 196.800,202.800 196.980,202.800 197.200 C 202.800 197.420,202.350 197.600,201.800 197.600 C 201.178 197.600,200.800 197.827,200.800 198.200 C 200.800 198.573,200.422 198.800,199.800 198.800 C 199.250 198.800,198.800 199.001,198.800 199.247 C 198.800 199.504,198.443 199.600,197.956 199.473 C 197.346 199.313,197.055 199.467,196.909 200.026 C 196.779 200.522,196.360 200.800,195.740 200.800 C 195.193 200.800,194.264 201.321,193.600 202.000 C 192.955 202.660,192.235 203.200,192.001 203.200 C 191.767 203.200,191.471 203.470,191.345 203.800 C 191.218 204.130,190.793 204.400,190.401 204.400 C 189.973 204.400,189.586 204.801,189.436 205.400 C 189.298 205.950,188.995 206.400,188.764 206.400 C 188.216 206.400,187.200 207.421,187.200 207.971 C 187.200 208.207,186.930 208.400,186.600 208.400 C 186.270 208.400,186.000 208.657,186.000 208.971 C 186.000 209.285,185.550 209.896,185.000 210.329 C 184.450 210.761,184.000 211.314,184.000 211.558 C 184.000 211.801,183.801 212.000,183.557 212.000 C 183.314 212.000,183.222 212.279,183.353 212.621 C 183.484 212.962,183.428 213.141,183.230 213.018 C 183.031 212.895,182.538 213.511,182.134 214.387 C 181.679 215.375,181.125 215.983,180.676 215.990 C 180.278 215.995,180.064 216.180,180.200 216.400 C 180.336 216.620,180.267 216.800,180.047 216.800 C 179.827 216.800,179.536 216.620,179.400 216.400 C 179.264 216.180,178.618 216.000,177.964 216.000 C 177.276 216.000,176.678 215.747,176.545 215.400 C 176.383 214.980,175.728 214.800,174.357 214.800 C 173.281 214.800,172.400 214.620,172.400 214.400 C 172.400 214.171,171.200 214.000,169.600 214.000 C 168.000 214.000,166.800 214.171,166.800 214.400 C 166.800 214.626,165.659 214.800,164.176 214.800 C 162.733 214.800,161.651 214.960,161.772 215.155 C 162.013 215.544,160.712 215.986,159.300 215.995 C 158.805 215.998,158.400 216.180,158.400 216.400 C 158.400 216.620,157.944 216.800,157.387 216.800 C 156.831 216.800,156.271 217.070,156.145 217.400 C 156.018 217.730,155.497 218.000,154.988 218.000 C 154.478 218.000,153.540 218.438,152.904 218.974 C 152.267 219.510,151.263 220.069,150.673 220.217 C 150.083 220.366,149.600 220.635,149.600 220.816 C 149.600 220.998,149.202 221.272,148.715 221.427 C 148.229 221.581,147.495 222.134,147.086 222.654 C 146.677 223.174,146.061 223.600,145.718 223.600 C 145.137 223.600,143.202 225.486,143.200 226.053 C 143.200 226.193,142.822 226.406,142.360 226.526 C 141.897 226.647,141.638 226.938,141.783 227.173 C 141.935 227.418,141.724 227.600,141.288 227.600 C 140.866 227.600,140.326 228.044,140.073 228.600 C 139.822 229.150,139.444 229.600,139.232 229.600 C 138.657 229.600,135.225 233.092,135.515 233.382 C 135.653 233.519,135.368 233.736,134.883 233.863 C 134.397 233.989,134.000 234.329,134.000 234.618 C 134.000 235.381,132.809 236.453,132.306 236.142 C 132.061 235.990,131.992 236.063,132.145 236.311 C 132.293 236.550,132.052 236.999,131.609 237.309 C 131.167 237.618,130.924 237.991,131.069 238.136 C 131.214 238.281,131.113 238.400,130.843 238.400 C 130.573 238.400,130.464 238.580,130.600 238.800 C 130.736 239.020,130.567 239.200,130.224 239.200 C 129.867 239.200,129.600 239.542,129.600 240.000 C 129.600 240.440,129.407 240.800,129.171 240.800 C 128.622 240.800,127.835 241.648,127.678 242.410 C 127.611 242.734,127.322 243.181,127.036 243.402 C 126.750 243.622,126.401 244.162,126.261 244.602 C 126.120 245.041,125.554 245.923,125.002 246.562 C 124.451 247.201,124.000 247.951,124.000 248.227 C 124.000 248.504,123.279 248.851,122.398 249.000 C 121.517 249.149,120.892 249.426,121.009 249.615 C 121.126 249.805,120.585 250.079,119.807 250.225 C 119.028 250.371,118.293 250.650,118.172 250.845 C 118.051 251.040,117.681 251.200,117.348 251.200 C 117.015 251.200,116.473 251.470,116.143 251.800 C 115.813 252.130,114.915 252.400,114.148 252.400 C 113.320 252.400,112.853 252.563,113.000 252.800 C 113.140 253.027,112.804 253.200,112.224 253.200 C 111.580 253.200,111.200 253.423,111.200 253.800 C 111.200 254.173,110.822 254.400,110.200 254.400 C 109.650 254.400,109.200 254.580,109.200 254.800 C 109.200 255.020,108.750 255.200,108.200 255.200 C 107.578 255.200,107.200 255.427,107.200 255.800 C 107.200 256.159,106.831 256.400,106.280 256.400 C 105.774 256.400,105.144 256.616,104.880 256.880 C 104.616 257.144,104.400 257.226,104.400 257.062 C 104.400 256.898,103.942 257.222,103.382 257.782 C 102.822 258.342,102.012 258.800,101.582 258.800 C 101.152 258.800,100.800 259.051,100.800 259.357 C 100.800 260.015,99.711 260.516,99.102 260.139 C 98.851 259.984,98.794 260.066,98.962 260.338 C 99.138 260.623,98.967 260.800,98.518 260.800 C 98.118 260.800,97.612 261.205,97.395 261.700 C 97.178 262.195,96.595 262.658,96.100 262.728 C 95.605 262.798,95.200 263.113,95.200 263.428 C 95.200 263.743,95.007 264.000,94.771 264.000 C 94.218 264.000,93.200 265.018,93.200 265.571 C 93.200 265.807,92.772 266.000,92.249 266.000 C 91.288 266.000,90.241 266.851,90.603 267.337 C 90.712 267.482,90.692 267.522,90.560 267.427 C 90.351 267.276,89.871 267.666,87.579 269.852 C 87.318 270.101,86.572 270.866,85.922 271.552 C 85.271 272.239,84.562 272.800,84.346 272.800 C 84.130 272.800,84.064 272.980,84.200 273.200 C 84.336 273.420,84.257 273.600,84.024 273.600 C 83.791 273.600,83.600 273.870,83.600 274.200 C 83.600 274.530,83.407 274.800,83.171 274.800 C 82.479 274.800,81.600 275.879,81.600 276.728 C 81.600 277.232,81.242 277.603,80.600 277.764 C 80.050 277.902,79.600 278.282,79.600 278.608 C 79.600 278.933,79.330 279.200,79.000 279.200 C 78.627 279.200,78.400 279.578,78.400 280.200 C 78.400 280.750,78.232 281.200,78.027 281.200 C 77.822 281.200,77.539 281.563,77.398 282.006 C 77.257 282.449,76.975 282.708,76.771 282.582 C 76.567 282.456,76.377 282.543,76.350 282.776 C 76.322 283.009,76.255 283.380,76.200 283.600 C 76.145 283.820,76.078 284.270,76.050 284.600 C 76.023 284.930,75.652 285.200,75.226 285.200 C 74.620 285.200,74.492 285.416,74.634 286.200 C 74.734 286.750,74.632 287.200,74.408 287.200 C 74.184 287.200,74.000 287.541,74.000 287.957 C 74.000 288.374,73.730 288.818,73.400 288.945 C 73.070 289.071,72.800 289.451,72.800 289.787 C 72.800 290.124,72.620 290.400,72.400 290.400 C 72.180 290.400,72.000 290.760,72.000 291.200 C 72.000 291.640,71.809 292.000,71.576 292.000 C 71.343 292.000,71.264 292.180,71.400 292.400 C 71.536 292.620,71.502 292.801,71.324 292.803 C 71.146 292.805,70.792 293.255,70.537 293.804 C 70.283 294.352,70.234 294.702,70.430 294.582 C 70.625 294.461,70.473 294.911,70.092 295.582 C 69.711 296.253,69.072 296.908,68.671 297.037 C 68.266 297.168,68.035 297.514,68.151 297.816 C 68.268 298.121,68.030 298.464,67.607 298.598 C 67.194 298.729,66.738 299.370,66.595 300.021 C 66.452 300.673,66.006 301.383,65.604 301.598 C 65.127 301.853,64.946 302.270,65.083 302.795 C 65.201 303.247,65.097 303.600,64.847 303.600 C 64.601 303.600,64.400 304.050,64.400 304.600 C 64.400 305.150,64.209 305.600,63.976 305.600 C 63.743 305.600,63.664 305.780,63.800 306.000 C 63.936 306.220,63.857 306.400,63.624 306.400 C 63.391 306.400,63.200 306.760,63.200 307.200 C 63.200 307.640,63.020 308.000,62.800 308.000 C 62.580 308.000,62.400 308.643,62.400 309.429 C 62.400 310.214,62.130 311.127,61.800 311.457 C 61.470 311.787,61.200 312.764,61.200 313.629 C 61.200 314.493,61.020 315.200,60.800 315.200 C 60.580 315.200,60.400 316.177,60.400 317.371 C 60.400 318.768,60.186 319.757,59.800 320.143 C 59.387 320.556,59.200 321.571,59.200 323.395 C 59.200 324.854,59.065 325.964,58.900 325.861 C 58.735 325.759,58.661 327.638,58.736 330.038 C 58.828 333.000,58.732 334.400,58.436 334.400 C 58.196 334.400,58.000 334.749,58.000 335.176 C 58.000 335.603,57.823 336.062,57.607 336.196 C 57.079 336.522,57.113 381.213,57.641 381.850 C 57.853 382.104,58.065 382.872,58.113 383.555 C 58.161 384.239,58.351 384.799,58.536 384.799 C 58.721 384.800,58.817 387.815,58.751 391.501 C 58.685 395.186,58.751 398.397,58.898 398.636 C 59.046 398.874,59.194 401.168,59.226 403.732 C 59.259 406.296,59.426 408.307,59.598 408.202 C 60.124 407.876,60.305 409.333,60.376 414.453 C 60.413 417.157,60.594 419.557,60.778 419.785 C 60.962 420.013,61.186 421.988,61.277 424.174 C 61.385 426.775,61.607 428.202,61.921 428.307 C 62.252 428.417,62.400 429.753,62.400 432.633 C 62.400 435.144,62.559 436.800,62.800 436.800 C 63.025 436.800,63.200 437.917,63.200 439.350 C 63.200 442.398,63.565 444.469,64.049 444.170 C 64.242 444.050,64.400 445.673,64.400 447.776 C 64.400 450.320,64.549 451.600,64.846 451.600 C 65.150 451.600,65.227 452.478,65.087 454.369 C 64.920 456.637,65.008 457.273,65.577 457.884 C 66.138 458.485,66.327 459.740,66.556 464.351 C 66.815 469.594,67.180 471.351,68.158 472.059 C 68.355 472.202,68.421 473.507,68.304 474.959 C 68.188 476.412,68.251 477.600,68.446 477.600 C 68.926 477.600,68.899 483.092,68.417 483.389 C 68.207 483.519,68.138 483.895,68.265 484.225 C 68.395 484.563,68.126 485.144,67.647 485.559 C 67.179 485.965,66.782 486.810,66.760 487.447 C 66.696 489.294,66.210 490.599,65.582 490.609 C 65.182 490.615,65.018 491.022,65.059 491.909 C 65.091 492.619,64.956 493.200,64.759 493.200 C 64.562 493.200,64.400 493.545,64.400 493.967 C 64.400 495.002,63.979 496.035,63.643 495.827 C 63.493 495.734,63.330 496.140,63.281 496.729 C 63.233 497.318,63.015 497.860,62.797 497.933 C 62.578 498.007,62.400 498.437,62.400 498.889 C 62.400 499.342,62.085 499.970,61.700 500.286 C 61.315 500.601,61.238 500.737,61.530 500.588 C 61.948 500.373,61.969 500.493,61.630 501.158 C 61.393 501.621,61.020 502.358,60.800 502.795 C 60.580 503.232,60.400 503.932,60.400 504.352 C 60.400 504.771,60.130 505.218,59.800 505.345 C 59.446 505.481,59.200 506.081,59.200 506.811 C 59.200 507.565,59.038 507.947,58.784 507.790 C 58.518 507.626,58.454 507.877,58.607 508.484 C 58.773 509.148,58.599 509.658,58.029 510.174 C 57.533 510.622,57.114 511.654,56.962 512.800 C 56.817 513.898,56.423 514.895,56.020 515.186 C 55.561 515.517,55.393 516.028,55.522 516.702 C 55.655 517.399,55.572 517.630,55.258 517.436 C 54.961 517.252,54.800 517.502,54.800 518.148 C 54.800 518.695,54.530 519.413,54.200 519.743 C 53.870 520.073,53.600 520.716,53.600 521.171 C 53.600 521.627,53.420 522.000,53.200 522.000 C 52.980 522.000,52.800 522.636,52.800 523.413 C 52.800 524.299,52.577 524.911,52.200 525.055 C 51.870 525.182,51.600 525.626,51.600 526.043 C 51.600 526.459,51.420 526.800,51.200 526.800 C 50.980 526.800,50.794 527.295,50.787 527.900 C 50.780 528.505,50.510 529.349,50.187 529.776 C 49.864 530.204,49.600 530.889,49.600 531.300 C 49.600 531.744,49.421 531.936,49.157 531.774 C 48.852 531.585,48.795 531.865,48.972 532.674 C 49.165 533.553,49.035 534.025,48.455 534.550 C 48.028 534.936,47.556 535.908,47.406 536.708 C 47.256 537.509,46.773 538.477,46.332 538.859 C 45.787 539.332,45.615 539.816,45.793 540.377 C 45.945 540.857,45.876 541.200,45.627 541.200 C 45.392 541.200,45.200 541.663,45.200 542.229 C 45.200 542.794,44.930 543.527,44.600 543.857 C 44.270 544.187,44.000 544.804,44.000 545.229 C 44.000 545.653,43.820 546.000,43.600 546.000 C 43.380 546.000,43.200 546.630,43.200 547.400 C 43.200 548.378,43.019 548.800,42.600 548.800 C 42.231 548.800,42.000 549.175,42.000 549.776 C 42.000 550.313,41.820 550.864,41.600 551.000 C 41.380 551.136,41.200 551.872,41.200 552.636 C 41.200 553.502,40.974 554.112,40.600 554.255 C 40.270 554.382,40.000 554.736,40.000 555.043 C 40.000 555.349,39.831 555.600,39.625 555.600 C 39.419 555.600,39.353 556.230,39.477 557.000 C 39.676 558.222,39.599 558.400,38.877 558.400 C 38.363 558.400,38.042 558.665,38.030 559.100 C 37.969 561.254,37.463 564.800,37.217 564.800 C 37.059 564.800,36.899 565.610,36.862 566.600 C 36.824 567.590,36.975 568.400,37.197 568.400 C 37.419 568.400,37.600 569.098,37.600 569.950 C 37.600 572.532,38.057 574.090,38.877 574.304 C 39.293 574.413,39.607 574.794,39.574 575.151 C 39.475 576.253,40.065 577.600,40.647 577.600 C 40.951 577.600,41.200 577.870,41.200 578.200 C 41.200 578.530,41.365 578.800,41.566 578.800 C 41.767 578.800,42.442 579.340,43.065 580.000 C 43.688 580.660,44.423 581.200,44.699 581.200 C 44.974 581.200,45.200 581.560,45.200 582.000 C 45.200 582.440,45.335 582.771,45.500 582.735 C 46.070 582.613,48.000 583.581,48.000 583.990 C 48.000 584.216,48.270 584.400,48.600 584.400 C 48.930 584.400,49.200 584.580,49.200 584.800 C 49.200 585.020,49.560 585.200,50.000 585.200 C 50.444 585.200,50.800 585.467,50.800 585.800 C 50.800 586.130,51.064 586.400,51.386 586.400 C 52.199 586.400,54.800 587.676,54.800 588.074 C 54.800 588.253,55.070 588.400,55.400 588.400 C 55.730 588.400,56.000 588.568,56.000 588.774 C 56.000 588.979,56.437 589.068,56.972 588.971 C 57.675 588.843,58.012 589.007,58.188 589.562 C 58.367 590.126,58.958 590.402,60.416 590.602 C 62.048 590.827,62.400 591.018,62.400 591.681 C 62.400 592.335,62.583 592.441,63.375 592.242 C 63.912 592.107,64.463 592.178,64.599 592.399 C 64.736 592.619,65.209 592.800,65.652 592.800 C 66.095 592.800,66.727 593.070,67.057 593.400 C 67.387 593.730,68.174 594.000,68.805 594.000 C 69.436 594.000,70.064 594.180,70.200 594.400 C 70.336 594.620,70.957 594.800,71.581 594.800 C 72.204 594.800,72.803 595.030,72.911 595.311 C 73.019 595.593,73.713 595.868,74.453 595.924 C 75.194 595.980,75.860 596.200,75.933 596.413 C 76.007 596.626,76.727 596.806,77.533 596.813 C 78.340 596.820,79.349 597.090,79.776 597.413 C 80.204 597.736,81.059 598.000,81.676 598.000 C 82.294 598.000,82.800 598.158,82.800 598.351 C 82.800 598.544,83.637 598.607,84.660 598.492 C 85.896 598.353,86.433 598.422,86.262 598.699 C 85.796 599.454,87.327 599.893,91.691 600.259 C 93.959 600.448,94.961 600.715,95.453 601.259 C 95.822 601.666,96.321 601.997,96.562 601.994 C 96.803 601.991,96.730 601.813,96.400 601.600 C 96.039 601.367,95.990 601.210,96.276 601.206 C 96.538 601.203,96.860 601.374,96.991 601.586 C 97.123 601.799,97.943 601.873,98.815 601.751 C 99.827 601.609,100.400 601.686,100.400 601.964 C 100.400 602.221,101.232 602.400,102.429 602.400 C 103.698 602.400,104.682 602.624,105.057 603.000 C 105.387 603.330,106.274 603.600,107.029 603.600 C 107.783 603.600,108.400 603.780,108.400 604.000 C 108.400 604.231,109.659 604.400,111.376 604.400 C 113.013 604.400,114.459 604.572,114.589 604.783 C 114.719 604.993,115.090 605.064,115.413 604.940 C 115.736 604.816,116.000 604.880,116.000 605.082 C 116.000 605.285,116.855 605.494,117.900 605.547 C 118.945 605.600,119.860 605.813,119.933 606.021 C 120.007 606.230,121.569 606.400,123.405 606.400 C 125.638 606.400,126.918 606.575,127.271 606.929 C 127.951 607.608,127.903 607.600,131.224 607.600 C 132.777 607.600,133.950 607.757,133.831 607.949 C 133.711 608.144,135.165 608.215,137.108 608.109 C 139.776 607.964,140.876 608.066,141.771 608.539 C 142.416 608.880,143.091 609.068,143.271 608.956 C 143.452 608.844,143.600 608.932,143.600 609.152 C 143.600 609.371,143.915 609.543,144.300 609.533 C 147.485 609.456,160.229 610.192,160.333 610.460 C 160.407 610.647,160.891 610.800,161.410 610.800 C 161.928 610.800,162.452 610.960,162.573 611.156 C 162.694 611.352,165.219 611.419,168.196 611.306 C 171.952 611.163,173.600 611.233,173.600 611.535 C 173.600 612.140,212.233 612.194,212.606 611.590 C 212.750 611.358,213.707 611.219,214.734 611.284 C 216.324 611.383,216.583 611.297,216.482 610.700 C 216.403 610.228,216.625 610.000,217.164 610.000 C 218.238 610.000,220.023 609.161,219.781 608.769 C 219.674 608.597,219.770 608.342,219.993 608.204 C 220.217 608.066,220.400 607.603,220.400 607.176 C 220.400 606.749,220.670 606.400,221.000 606.400 C 221.369 606.400,221.600 606.025,221.600 605.424 C 221.600 604.887,221.780 604.336,222.000 604.200 C 222.220 604.064,222.400 603.598,222.400 603.164 C 222.400 602.730,222.670 602.271,223.000 602.145 C 223.330 602.018,223.600 601.584,223.600 601.181 C 223.600 600.777,223.757 600.350,223.948 600.232 C 224.140 600.114,224.408 599.461,224.544 598.782 C 224.685 598.074,224.968 597.656,225.205 597.803 C 225.433 597.944,225.589 597.911,225.551 597.730 C 225.327 596.654,226.180 593.997,226.814 593.796 C 227.317 593.636,227.610 592.984,227.800 591.600 C 228.001 590.142,228.273 589.567,228.852 589.383 C 229.404 589.208,229.562 588.910,229.390 588.368 C 229.253 587.938,229.334 587.600,229.573 587.600 C 229.808 587.600,229.979 587.465,229.953 587.300 C 229.778 586.197,230.086 585.200,230.600 585.200 C 230.973 585.200,231.200 584.822,231.200 584.200 C 231.200 583.650,231.380 583.200,231.600 583.200 C 231.820 583.200,232.000 582.750,232.000 582.200 C 232.000 581.578,232.227 581.200,232.600 581.200 C 232.933 581.200,233.200 580.844,233.200 580.400 C 233.200 579.960,233.380 579.600,233.600 579.600 C 233.820 579.600,234.000 579.241,234.000 578.803 C 234.000 577.864,235.268 574.800,235.657 574.800 C 235.804 574.800,235.831 574.440,235.716 574.000 C 235.599 573.553,235.704 573.200,235.953 573.200 C 236.199 573.200,236.400 572.919,236.400 572.576 C 236.400 572.233,236.563 572.054,236.762 572.177 C 236.962 572.300,237.248 571.508,237.398 570.416 C 237.600 568.943,237.872 568.368,238.452 568.183 C 239.004 568.008,239.162 567.710,238.990 567.168 C 238.853 566.738,238.934 566.400,239.173 566.400 C 239.408 566.400,239.600 565.860,239.600 565.200 C 239.600 564.400,239.800 564.000,240.200 564.000 C 240.573 564.000,240.800 563.622,240.800 563.000 C 240.800 562.450,240.980 562.000,241.200 562.000 C 241.420 562.000,241.600 561.717,241.600 561.371 C 241.600 561.026,241.870 560.473,242.200 560.143 C 242.530 559.813,242.800 559.185,242.800 558.748 C 242.800 558.311,242.943 558.041,243.117 558.149 C 243.291 558.256,243.476 557.792,243.528 557.117 C 243.643 555.596,243.926 555.107,244.489 555.455 C 244.737 555.608,244.809 555.539,244.658 555.294 C 244.512 555.058,244.677 554.581,245.024 554.233 C 245.408 553.849,245.555 553.289,245.400 552.801 C 245.254 552.341,245.328 552.000,245.573 552.000 C 245.808 552.000,245.955 551.775,245.900 551.500 C 245.845 551.225,245.995 551.035,246.233 551.078 C 246.472 551.121,246.683 550.941,246.704 550.678 C 246.925 547.843,248.033 545.366,248.570 546.504 C 248.699 546.777,248.710 546.505,248.595 545.900 C 248.477 545.282,248.563 544.800,248.792 544.800 C 249.017 544.800,249.200 544.350,249.200 543.800 C 249.200 543.250,249.367 542.800,249.571 542.800 C 249.948 542.800,251.200 540.579,251.200 539.910 C 251.200 539.708,251.470 539.273,251.800 538.943 C 252.130 538.613,252.400 537.906,252.400 537.371 C 252.400 536.837,252.580 536.400,252.800 536.400 C 253.020 536.400,253.200 535.959,253.200 535.420 C 253.200 534.881,253.470 534.289,253.800 534.104 C 254.130 533.919,254.511 532.965,254.647 531.984 C 254.873 530.354,255.187 529.829,256.139 529.493 C 256.326 529.428,256.574 528.525,256.691 527.487 C 256.857 526.014,257.062 525.600,257.626 525.600 C 258.177 525.600,258.304 525.364,258.166 524.600 C 258.066 524.050,258.168 523.600,258.392 523.600 C 258.616 523.600,258.800 523.139,258.800 522.576 C 258.800 521.988,258.972 521.659,259.205 521.803 C 259.430 521.942,259.719 521.503,259.857 520.813 C 259.994 520.130,260.201 519.667,260.317 519.784 C 260.433 519.900,260.788 519.624,261.106 519.171 C 261.423 518.717,261.934 518.443,262.242 518.561 C 262.549 518.678,262.800 518.601,262.800 518.387 C 262.800 518.174,263.610 518.000,264.600 518.000 C 265.590 518.000,266.400 517.820,266.400 517.600 C 266.400 517.380,266.927 517.200,267.571 517.200 C 268.216 517.200,268.987 516.956,269.286 516.657 C 269.585 516.358,270.849 515.986,272.096 515.830 C 273.837 515.613,274.420 515.368,274.608 514.774 C 274.786 514.214,275.220 514.000,276.178 514.000 C 276.906 514.000,277.733 513.721,278.016 513.381 C 278.426 512.887,278.596 512.867,278.859 513.281 C 279.103 513.667,279.189 513.621,279.194 513.100 C 279.198 512.622,279.517 512.400,280.200 512.400 C 280.750 512.400,281.200 512.220,281.200 512.000 C 281.200 511.780,281.470 511.600,281.800 511.600 C 282.130 511.600,282.400 511.432,282.400 511.227 C 282.400 510.801,283.955 510.196,284.689 510.337 C 284.957 510.388,285.282 510.011,285.411 509.498 C 285.555 508.925,285.968 508.542,286.486 508.503 C 286.949 508.469,287.434 508.275,287.564 508.074 C 287.694 507.873,288.205 507.581,288.700 507.427 C 289.195 507.272,289.600 506.998,289.600 506.816 C 289.600 506.635,290.050 506.374,290.600 506.236 C 291.246 506.074,291.600 505.704,291.600 505.192 C 291.600 504.614,291.870 504.400,292.600 504.400 C 293.594 504.400,295.200 503.165,295.200 502.400 C 295.200 502.180,295.470 502.000,295.800 502.000 C 296.130 502.000,296.400 501.730,296.400 501.400 C 296.400 501.070,296.648 500.800,296.951 500.800 C 297.254 500.800,297.724 500.532,297.996 500.204 C 298.268 499.877,298.630 499.695,298.800 499.800 C 298.970 499.905,299.206 499.620,299.325 499.166 C 299.444 498.712,299.914 498.243,300.370 498.124 C 300.827 498.004,301.200 497.687,301.200 497.418 C 301.200 497.149,301.646 496.725,302.192 496.476 C 302.840 496.181,303.103 495.812,302.949 495.412 C 302.786 494.987,302.962 494.800,303.525 494.800 C 304.101 494.800,304.413 494.452,304.600 493.600 C 304.745 492.940,305.113 492.400,305.418 492.400 C 306.083 492.400,306.800 491.169,306.800 490.026 C 306.800 489.558,307.060 489.200,307.400 489.200 C 307.948 489.200,308.218 488.409,308.014 487.400 C 307.970 487.180,308.062 487.129,308.220 487.286 C 308.539 487.605,310.000 485.923,310.000 485.237 C 310.000 484.997,310.180 484.800,310.400 484.800 C 310.620 484.800,310.800 484.549,310.800 484.243 C 310.800 483.936,311.070 483.582,311.400 483.455 C 311.730 483.329,312.000 482.859,312.000 482.413 C 312.000 481.966,312.195 481.600,312.433 481.600 C 312.672 481.600,312.793 481.379,312.703 481.108 C 312.612 480.837,312.957 480.164,313.469 479.612 C 313.981 479.060,314.400 478.312,314.400 477.951 C 314.400 477.589,314.783 477.193,315.252 477.071 C 315.821 476.922,316.024 476.641,315.865 476.224 C 315.733 475.881,315.799 475.600,316.013 475.600 C 316.226 475.600,316.400 475.240,316.400 474.800 C 316.400 474.356,316.667 474.000,317.000 474.000 C 317.333 474.000,317.600 473.644,317.600 473.200 C 317.600 472.760,317.760 472.400,317.957 472.400 C 318.153 472.400,318.426 471.950,318.564 471.400 C 318.702 470.850,318.992 470.400,319.208 470.400 C 319.423 470.400,319.600 470.130,319.600 469.800 C 319.600 469.470,319.780 469.200,320.000 469.200 C 320.220 469.200,320.400 468.930,320.400 468.600 C 320.400 468.270,320.632 468.000,320.915 468.000 C 321.198 468.000,321.460 467.598,321.497 467.106 C 321.534 466.614,321.742 466.153,321.960 466.080 C 322.177 466.008,322.256 465.690,322.135 465.374 C 322.014 465.058,322.101 464.800,322.329 464.800 C 323.073 464.800,324.000 463.564,324.000 462.571 C 324.000 461.694,324.389 461.399,325.330 461.563 C 325.511 461.594,325.553 461.448,325.423 461.238 C 325.293 461.027,325.370 460.742,325.593 460.604 C 325.817 460.466,326.000 459.913,326.000 459.376 C 326.000 458.775,326.231 458.400,326.600 458.400 C 326.930 458.400,327.200 458.164,327.200 457.875 C 327.200 457.587,327.515 456.997,327.900 456.563 C 328.285 456.130,329.046 454.927,329.592 453.888 C 330.137 452.850,330.720 452.000,330.887 452.000 C 331.054 452.000,331.306 451.280,331.446 450.400 C 331.635 449.223,331.892 448.800,332.419 448.800 C 332.894 448.800,333.227 448.386,333.406 447.573 C 333.554 446.898,333.923 446.251,334.226 446.135 C 334.528 446.019,334.997 445.311,335.268 444.562 C 335.539 443.813,335.995 443.200,336.280 443.200 C 336.568 443.200,336.800 442.753,336.800 442.200 C 336.800 441.650,336.980 441.200,337.200 441.200 C 337.420 441.200,337.600 440.750,337.600 440.200 C 337.600 439.650,337.828 439.200,338.106 439.200 C 338.384 439.200,338.923 438.480,339.304 437.600 C 339.686 436.720,340.164 436.000,340.367 436.000 C 340.570 436.000,340.847 435.495,340.983 434.878 C 341.119 434.260,341.588 433.497,342.025 433.182 C 342.463 432.866,342.927 431.947,343.056 431.139 C 343.218 430.128,343.539 429.605,344.086 429.462 C 344.523 429.347,344.762 429.062,344.617 428.827 C 344.472 428.592,344.543 428.400,344.776 428.400 C 345.009 428.400,345.200 428.031,345.200 427.581 C 345.200 427.130,345.657 426.338,346.217 425.820 C 346.931 425.158,347.079 424.816,346.717 424.670 C 346.321 424.512,346.317 424.456,346.700 424.432 C 346.975 424.414,347.200 424.124,347.200 423.787 C 347.200 423.451,347.470 423.071,347.800 422.945 C 348.130 422.818,348.400 422.374,348.400 421.957 C 348.400 421.541,348.580 421.200,348.800 421.200 C 349.020 421.200,349.200 420.924,349.200 420.587 C 349.200 420.251,349.470 419.871,349.800 419.745 C 350.130 419.618,350.400 419.174,350.400 418.757 C 350.400 418.341,350.563 418.000,350.763 418.000 C 350.962 418.000,351.031 417.640,350.916 417.200 C 350.758 416.595,350.904 416.400,351.516 416.400 C 352.183 416.400,352.373 416.050,352.600 414.400 C 352.817 412.824,353.031 412.400,353.611 412.400 C 354.178 412.400,354.305 412.170,354.166 411.400 C 354.066 410.850,354.168 410.400,354.392 410.400 C 354.616 410.400,354.803 409.905,354.806 409.300 C 354.811 408.478,354.905 408.346,355.179 408.779 C 355.466 409.233,355.603 409.125,355.816 408.279 C 355.965 407.686,356.247 407.200,356.443 407.200 C 356.640 407.200,356.800 406.750,356.800 406.200 C 356.800 405.650,356.977 405.200,357.192 405.200 C 357.408 405.200,357.697 404.751,357.835 404.203 C 357.973 403.654,358.258 403.312,358.469 403.443 C 358.681 403.573,358.820 403.437,358.779 403.140 C 358.644 402.153,358.794 401.663,359.425 401.033 C 359.768 400.689,360.076 400.046,360.110 399.604 C 360.143 399.162,360.323 398.800,360.509 398.800 C 360.695 398.800,360.727 398.606,360.580 398.368 C 360.433 398.130,360.682 397.678,361.133 397.362 C 361.652 396.998,362.052 396.129,362.222 394.994 C 362.437 393.558,362.650 393.200,363.289 393.200 C 363.940 393.200,364.041 393.016,363.836 392.200 C 363.691 391.623,363.757 391.200,363.992 391.200 C 364.217 391.200,364.400 390.719,364.400 390.131 C 364.400 389.544,364.715 388.703,365.100 388.263 C 365.607 387.683,365.635 387.553,365.200 387.790 C 364.712 388.056,364.694 388.017,365.100 387.579 C 365.375 387.282,365.600 386.716,365.600 386.320 C 365.600 385.924,365.780 385.600,366.000 385.600 C 366.220 385.600,366.400 384.694,366.400 383.587 C 366.400 382.168,366.577 381.507,367.000 381.345 C 367.389 381.195,367.600 380.575,367.600 379.581 C 367.600 378.737,367.754 377.952,367.941 377.836 C 368.129 377.720,368.387 376.246,368.514 374.559 C 368.642 372.873,368.938 371.302,369.173 371.067 C 369.408 370.832,369.600 370.147,369.600 369.544 C 369.600 368.941,369.756 368.351,369.947 368.233 C 370.137 368.115,370.206 366.437,370.100 364.505 C 369.932 361.455,370.017 360.793,370.746 359.495 C 371.309 358.494,371.423 357.998,371.093 357.994 C 370.751 357.990,370.734 357.898,371.039 357.694 C 371.581 357.332,371.504 358.807,371.842 342.300 C 371.998 334.655,372.285 328.400,372.479 328.400 C 372.673 328.400,372.805 326.331,372.773 323.803 C 372.740 321.275,372.576 319.291,372.407 319.396 C 372.154 319.552,371.977 316.446,371.573 304.705 C 371.560 304.323,371.180 303.751,370.728 303.434 C 370.090 302.988,369.943 302.537,370.072 301.429 C 370.164 300.643,370.096 300.000,369.920 300.000 C 369.744 300.000,369.621 299.865,369.647 299.700 C 369.802 298.723,369.521 297.578,369.000 297.057 C 368.670 296.727,368.400 296.084,368.400 295.629 C 368.400 295.173,368.220 294.800,368.000 294.800 C 367.780 294.800,367.600 294.254,367.600 293.587 C 367.600 292.879,367.351 292.279,367.000 292.145 C 366.658 292.013,366.400 291.417,366.400 290.757 C 366.400 290.121,366.220 289.600,366.000 289.600 C 365.780 289.600,365.600 289.253,365.600 288.829 C 365.600 288.404,365.334 287.791,365.009 287.466 C 364.684 287.141,364.376 286.319,364.324 285.638 C 364.272 284.957,364.085 284.400,363.907 284.400 C 363.730 284.400,363.670 283.928,363.775 283.350 C 363.907 282.621,363.721 282.101,363.165 281.650 C 362.394 281.023,362.367 280.529,362.387 267.651 C 362.414 251.145,362.165 246.800,361.190 246.800 C 360.518 246.800,360.393 246.284,359.901 241.500 C 359.861 241.115,359.597 240.800,359.314 240.800 C 359.031 240.800,358.800 240.440,358.800 240.000 C 358.800 239.560,358.620 239.200,358.400 239.200 C 358.180 239.200,358.000 238.840,358.000 238.400 C 358.000 237.960,357.779 237.645,357.509 237.700 C 357.240 237.755,356.957 237.392,356.881 236.894 C 356.805 236.396,356.576 236.091,356.371 236.218 C 356.167 236.344,356.000 236.167,356.000 235.824 C 356.000 235.481,355.811 235.200,355.581 235.200 C 355.350 235.200,354.745 234.750,354.235 234.200 C 353.725 233.650,353.104 233.200,352.854 233.200 C 352.604 233.200,352.397 232.885,352.394 232.500 C 352.389 231.902,352.331 231.887,352.000 232.400 C 351.787 232.730,351.609 232.796,351.606 232.547 C 351.599 231.995,350.486 231.597,347.300 231.005 C 346.585 230.872,346.000 230.592,346.000 230.382 C 346.000 230.172,345.269 230.000,344.376 230.000 C 343.194 230.000,342.829 230.136,343.035 230.500 C 343.254 230.888,343.202 230.894,342.804 230.526 C 342.407 230.158,342.162 230.181,341.717 230.626 C 341.359 230.984,340.325 231.200,338.971 231.200 C 337.777 231.200,336.800 231.380,336.800 231.600 C 336.800 231.820,336.344 232.000,335.787 232.000 C 335.231 232.000,334.671 232.270,334.545 232.600 C 334.413 232.942,333.817 233.200,333.157 233.200 C 332.521 233.200,332.000 233.337,332.000 233.504 C 332.000 233.671,331.621 234.044,331.158 234.333 C 330.461 234.769,330.363 234.768,330.588 234.330 C 330.737 234.038,330.601 234.115,330.286 234.500 C 329.970 234.885,329.507 235.200,329.256 235.200 C 329.005 235.200,328.800 235.380,328.800 235.600 C 328.800 235.820,328.446 236.000,328.013 236.000 C 327.477 236.000,327.299 236.192,327.455 236.600 C 327.613 237.010,327.432 237.200,326.886 237.200 C 326.446 237.200,325.981 237.472,325.854 237.803 C 325.727 238.135,325.167 238.614,324.611 238.868 C 324.055 239.121,323.600 239.504,323.600 239.718 C 323.600 239.933,323.150 240.525,322.600 241.035 C 322.050 241.545,321.600 242.150,321.600 242.381 C 321.600 242.611,321.330 242.800,321.000 242.800 C 320.670 242.800,320.400 243.081,320.400 243.424 C 320.400 243.793,320.212 243.931,319.938 243.762 C 319.684 243.605,319.573 243.639,319.691 243.838 C 320.019 244.390,319.261 246.085,318.811 245.807 C 318.588 245.669,318.303 246.267,318.157 247.181 C 317.961 248.404,317.715 248.800,317.149 248.800 C 316.737 248.800,316.430 248.935,316.467 249.100 C 316.669 250.000,315.798 252.496,315.115 252.974 C 314.560 253.363,314.403 253.778,314.589 254.364 C 314.745 254.856,314.678 255.200,314.427 255.200 C 314.192 255.200,314.000 255.663,314.000 256.229 C 314.000 256.794,313.730 257.527,313.400 257.857 C 313.070 258.187,312.800 258.984,312.800 259.629 C 312.800 260.273,312.620 260.800,312.400 260.800 C 312.180 260.800,312.000 261.505,312.000 262.367 C 312.000 263.228,311.802 263.999,311.561 264.080 C 311.319 264.160,311.026 265.075,310.909 266.113 C 310.792 267.151,310.572 268.000,310.419 268.000 C 310.267 268.000,310.101 268.929,310.049 270.064 C 309.997 271.199,309.695 272.630,309.377 273.244 C 309.060 273.858,308.800 275.280,308.800 276.404 C 308.800 277.528,308.647 278.353,308.461 278.238 C 308.275 278.122,308.209 279.391,308.316 281.056 C 308.423 282.722,308.351 284.200,308.155 284.342 C 307.387 284.900,306.763 286.400,307.297 286.406 C 307.608 286.410,307.647 286.525,307.400 286.706 C 306.880 287.088,306.862 287.282,306.544 296.100 C 306.395 300.225,306.122 303.600,305.937 303.600 C 305.752 303.600,305.600 303.791,305.600 304.024 C 305.600 304.257,305.786 304.332,306.014 304.192 C 306.241 304.051,306.072 304.520,305.638 305.233 C 304.928 306.401,304.872 307.020,305.077 311.465 C 305.241 315.005,305.177 316.400,304.853 316.400 C 304.576 316.400,304.400 317.178,304.400 318.400 C 304.400 319.900,304.252 320.400,303.808 320.400 C 303.064 320.400,302.635 318.771,302.918 317.025 C 303.037 316.293,302.981 315.538,302.794 315.347 C 302.606 315.156,302.399 313.890,302.334 312.534 C 302.269 311.177,302.090 310.144,301.937 310.239 C 301.065 310.778,300.929 213.306,301.800 212.000 C 302.239 211.342,302.279 210.802,302.403 203.900 C 302.450 201.315,302.603 199.200,302.744 199.200 C 302.885 199.200,302.937 196.881,302.861 194.046 C 302.740 189.558,302.818 188.745,303.461 187.763 C 303.867 187.143,304.222 186.178,304.249 185.618 C 304.276 185.058,304.424 181.180,304.579 177.000 C 304.832 170.131,305.015 168.802,305.984 166.800 C 306.143 166.470,306.192 164.332,306.092 162.049 C 305.973 159.323,306.048 157.983,306.312 158.146 C 306.573 158.307,306.736 156.604,306.776 153.315 C 306.815 150.102,307.010 148.029,307.308 147.670 C 307.610 147.306,307.833 144.739,307.933 140.452 C 308.020 136.753,308.262 133.691,308.479 133.555 C 308.693 133.421,308.853 133.196,308.834 133.055 C 308.611 131.387,308.890 119.608,309.149 119.768 C 309.672 120.091,309.991 117.494,309.996 112.876 C 309.998 110.608,310.156 108.849,310.348 108.968 C 310.539 109.086,310.739 107.521,310.792 105.491 C 310.845 103.461,310.899 101.583,310.911 101.317 C 310.923 101.052,311.173 100.742,311.467 100.630 C 311.846 100.484,312.000 99.554,312.000 97.413 C 312.000 95.756,312.145 94.400,312.323 94.400 C 312.501 94.400,312.569 92.780,312.474 90.800 C 312.355 88.303,312.440 87.200,312.751 87.200 C 312.998 87.200,313.200 86.930,313.200 86.600 C 313.200 86.270,313.380 86.000,313.600 86.000 C 313.820 86.000,313.997 85.685,313.994 85.300 C 313.989 84.695,313.929 84.681,313.556 85.200 C 313.218 85.670,313.197 85.627,313.462 85.000 C 314.336 82.931,314.075 63.031,313.161 62.050 C 312.434 61.270,312.334 60.813,312.530 59.162 C 312.665 58.023,312.602 57.200,312.381 57.200 C 312.172 57.200,312.000 56.772,312.000 56.249 C 312.000 55.726,311.730 55.074,311.400 54.800 C 311.070 54.526,310.800 53.709,310.800 52.984 C 310.800 52.260,310.612 51.604,310.382 51.527 C 310.152 51.451,309.934 50.986,309.897 50.494 C 309.860 50.002,309.598 49.600,309.315 49.600 C 309.032 49.600,308.800 49.262,308.800 48.849 C 308.800 48.436,308.530 47.874,308.200 47.600 C 307.870 47.326,307.600 46.864,307.600 46.574 C 307.600 46.283,307.220 45.780,306.757 45.455 C 306.293 45.130,306.028 44.679,306.168 44.452 C 306.308 44.225,306.057 43.845,305.611 43.606 C 305.165 43.367,304.800 42.912,304.800 42.595 C 304.800 42.278,304.344 41.720,303.788 41.355 C 303.231 40.990,302.862 40.605,302.968 40.498 C 303.302 40.164,302.027 39.136,301.603 39.398 C 301.381 39.535,301.200 39.277,301.200 38.824 C 301.200 38.226,300.942 38.000,300.261 38.000 C 299.208 38.000,297.455 36.679,297.907 36.226 C 298.068 36.065,298.020 35.972,297.800 36.020 C 296.979 36.198,294.800 35.483,294.800 35.035 C 294.800 34.779,294.215 34.526,293.500 34.472 C 292.785 34.419,292.140 34.200,292.067 33.987 C 291.885 33.459,280.800 33.471,280.800 34.000 M287.200 41.578 C 287.200 41.786,288.055 42.011,289.100 42.078 C 290.358 42.159,290.966 42.369,290.900 42.700 C 290.841 42.993,291.213 43.200,291.800 43.200 C 292.350 43.200,292.800 43.380,292.800 43.600 C 292.800 43.820,293.250 44.000,293.800 44.000 C 294.417 44.000,294.800 44.227,294.800 44.592 C 294.800 44.918,295.234 45.294,295.765 45.427 C 296.340 45.571,296.829 46.060,296.973 46.635 C 297.131 47.265,297.502 47.600,298.041 47.600 C 298.521 47.600,298.797 47.808,298.701 48.096 C 298.507 48.679,299.326 49.600,300.038 49.600 C 300.310 49.600,300.424 49.710,300.289 49.844 C 300.155 49.978,300.388 50.727,300.807 51.508 C 301.225 52.289,301.472 53.084,301.354 53.274 C 301.237 53.464,301.375 53.570,301.661 53.510 C 301.947 53.449,302.243 53.805,302.318 54.300 C 302.394 54.795,302.623 55.200,302.828 55.200 C 303.033 55.200,303.200 55.727,303.200 56.371 C 303.200 57.016,303.470 57.813,303.800 58.143 C 304.158 58.501,304.400 59.479,304.400 60.571 C 304.400 61.577,304.587 62.400,304.816 62.400 C 305.081 62.400,305.165 63.345,305.047 64.995 C 304.944 66.423,305.027 67.693,305.230 67.819 C 305.434 67.944,305.600 68.487,305.600 69.024 C 305.600 69.561,305.780 70.000,306.000 70.000 C 306.240 70.000,306.400 71.608,306.400 74.024 C 306.400 76.604,306.257 77.959,306.000 77.800 C 305.773 77.660,305.600 77.996,305.600 78.576 C 305.600 79.139,305.430 79.600,305.222 79.600 C 304.995 79.600,304.928 81.129,305.055 83.400 C 305.181 85.673,305.114 87.200,304.887 87.200 C 304.679 87.200,304.475 88.775,304.434 90.700 C 304.392 92.625,304.187 94.260,303.977 94.334 C 303.767 94.408,303.697 94.633,303.821 94.834 C 303.945 95.035,303.857 95.200,303.624 95.200 C 303.361 95.200,303.200 96.414,303.200 98.400 C 303.200 100.267,303.033 101.600,302.800 101.600 C 302.560 101.600,302.400 103.178,302.400 105.533 C 302.400 107.697,302.275 109.592,302.122 109.745 C 301.626 110.240,301.494 111.315,301.313 116.300 C 301.215 118.995,300.999 121.200,300.834 121.200 C 300.668 121.200,300.487 124.215,300.431 127.900 C 300.311 135.869,300.221 136.802,299.529 137.289 C 299.114 137.581,299.108 137.705,299.500 137.864 C 299.775 137.975,300.000 138.242,300.000 138.457 C 300.000 138.672,299.820 138.736,299.600 138.600 C 299.341 138.440,299.200 140.196,299.200 143.576 C 299.200 146.449,299.059 148.800,298.887 148.800 C 298.715 148.800,298.645 151.140,298.732 154.000 C 298.842 157.641,298.756 159.200,298.444 159.200 C 298.200 159.200,298.000 159.470,298.000 159.800 C 298.000 160.130,297.775 160.403,297.500 160.406 C 297.167 160.410,297.200 160.542,297.600 160.800 C 297.958 161.032,298.009 161.190,297.725 161.194 C 297.464 161.197,297.263 161.515,297.280 161.900 C 297.404 164.812,296.608 178.800,296.318 178.800 C 296.117 178.800,296.048 178.953,296.164 179.141 C 296.280 179.329,296.134 179.811,295.840 180.213 C 295.440 180.759,295.353 182.053,295.495 185.322 C 295.631 188.460,295.559 189.622,295.242 189.426 C 294.927 189.231,294.800 190.824,294.800 194.976 C 294.800 198.179,294.650 200.800,294.467 200.800 C 294.283 200.800,294.114 201.025,294.090 201.300 C 294.066 201.575,293.960 202.160,293.854 202.600 C 293.748 203.040,293.647 206.516,293.631 210.324 C 293.611 214.752,293.458 217.160,293.207 217.004 C 292.950 216.845,292.810 232.583,292.803 262.380 C 292.798 289.473,292.941 308.000,293.157 308.000 C 293.357 308.000,293.583 309.627,293.660 311.615 C 293.743 313.752,293.987 315.346,294.258 315.515 C 294.699 315.789,295.147 318.744,295.286 322.300 C 295.328 323.351,295.543 324.000,295.850 324.000 C 296.448 324.000,296.650 324.661,297.007 327.788 C 297.181 329.308,297.537 330.398,297.989 330.790 C 298.399 331.146,298.820 332.290,298.987 333.503 C 299.179 334.901,299.462 335.600,299.838 335.600 C 300.171 335.600,300.400 336.007,300.400 336.600 C 300.400 337.150,300.580 337.600,300.800 337.600 C 301.020 337.600,301.200 338.050,301.200 338.600 C 301.200 339.222,301.427 339.600,301.800 339.600 C 302.133 339.600,302.400 339.956,302.400 340.400 C 302.400 340.840,302.580 341.200,302.800 341.200 C 303.020 341.200,303.200 341.566,303.200 342.013 C 303.200 342.459,303.470 342.929,303.800 343.055 C 304.130 343.182,304.400 343.536,304.400 343.843 C 304.400 344.149,304.570 344.400,304.777 344.400 C 304.984 344.400,305.085 344.760,305.000 345.200 C 304.902 345.708,305.061 346.000,305.436 346.000 C 306.038 346.000,306.849 347.557,306.529 348.100 C 306.432 348.265,306.734 348.400,307.200 348.400 C 307.666 348.400,307.955 348.550,307.841 348.733 C 307.728 348.917,307.897 349.067,308.218 349.067 C 308.623 349.067,308.800 348.615,308.800 347.582 C 308.800 346.751,309.064 345.879,309.400 345.600 C 309.799 345.269,310.000 344.372,310.000 342.927 C 310.000 341.580,310.152 340.847,310.400 341.000 C 310.652 341.155,310.802 340.236,310.805 338.524 C 310.812 335.466,311.117 333.902,311.645 334.228 C 311.842 334.349,312.000 332.828,312.000 330.824 C 312.000 328.831,312.135 327.200,312.300 327.200 C 312.465 327.200,312.538 324.500,312.463 321.200 C 312.377 317.468,312.473 315.200,312.716 315.200 C 313.667 315.200,313.759 314.353,314.212 301.500 C 314.419 295.618,314.661 292.798,314.959 292.794 C 315.202 292.791,315.151 292.630,314.846 292.437 C 314.401 292.155,314.453 292.000,315.111 291.648 C 315.866 291.244,315.914 290.941,315.721 287.805 C 315.577 285.452,315.649 284.400,315.956 284.400 C 316.242 284.400,316.400 283.323,316.400 281.371 C 316.400 279.213,316.572 278.171,317.000 277.743 C 317.386 277.357,317.600 276.368,317.600 274.971 C 317.600 273.777,317.780 272.800,318.000 272.800 C 318.220 272.800,318.400 271.823,318.400 270.629 C 318.400 269.232,318.614 268.243,319.000 267.857 C 319.330 267.527,319.600 266.740,319.600 266.109 C 319.600 265.477,319.771 264.789,319.981 264.579 C 320.190 264.370,320.407 263.524,320.463 262.699 C 320.524 261.790,320.768 261.200,321.082 261.200 C 321.367 261.200,321.569 261.065,321.532 260.900 C 321.268 259.747,322.190 256.704,322.880 256.449 C 323.309 256.290,323.637 256.079,323.609 255.980 C 323.315 254.927,324.209 252.400,324.876 252.400 C 325.372 252.400,325.626 252.149,325.583 251.700 C 325.474 250.559,326.052 249.200,326.647 249.200 C 326.951 249.200,327.200 248.930,327.200 248.600 C 327.200 248.270,327.359 248.000,327.553 248.000 C 327.748 248.000,328.006 247.622,328.126 247.160 C 328.247 246.697,328.538 246.438,328.773 246.583 C 329.008 246.728,329.200 246.643,329.200 246.392 C 329.200 245.785,332.426 242.800,333.082 242.800 C 333.367 242.800,333.600 242.530,333.600 242.200 C 333.600 241.827,333.978 241.600,334.600 241.600 C 335.150 241.600,335.600 241.420,335.600 241.200 C 335.600 240.980,336.028 240.800,336.551 240.800 C 337.074 240.800,337.726 240.530,338.000 240.200 C 338.274 239.870,338.986 239.600,339.582 239.600 C 340.179 239.600,340.789 239.477,340.939 239.327 C 341.556 238.711,348.400 239.395,348.400 240.073 C 348.400 240.591,349.439 241.600,349.971 241.600 C 350.207 241.600,350.400 242.050,350.400 242.600 C 350.400 243.150,350.580 243.600,350.800 243.600 C 351.020 243.600,351.200 243.876,351.200 244.213 C 351.200 244.549,351.470 244.929,351.800 245.055 C 352.130 245.182,352.400 245.716,352.400 246.243 C 352.400 246.769,352.582 247.200,352.805 247.200 C 353.052 247.200,353.132 247.991,353.009 249.221 C 352.899 250.333,352.959 251.149,353.144 251.035 C 354.175 250.397,354.387 253.148,354.492 268.536 L 354.600 284.471 355.544 285.236 C 356.333 285.874,356.446 286.231,356.226 287.400 C 356.062 288.275,356.121 288.800,356.382 288.800 C 356.612 288.800,356.800 289.250,356.800 289.800 C 356.800 290.350,356.977 290.800,357.192 290.800 C 357.408 290.800,357.703 291.295,357.848 291.900 C 357.992 292.505,358.241 293.180,358.400 293.400 C 358.559 293.620,358.808 294.295,358.952 294.900 C 359.097 295.505,359.392 296.000,359.608 296.000 C 359.823 296.000,360.000 296.362,360.000 296.805 C 360.000 297.248,360.167 297.923,360.371 298.305 C 360.779 299.071,361.089 300.007,361.115 300.555 C 361.124 300.751,361.319 301.026,361.547 301.167 C 361.776 301.309,362.008 302.094,362.063 302.912 C 362.118 303.730,362.322 304.400,362.515 304.400 C 362.708 304.400,362.754 305.225,362.617 306.233 C 362.477 307.269,362.523 307.971,362.724 307.847 C 362.919 307.726,363.332 308.099,363.640 308.675 C 364.347 309.999,364.327 349.291,363.619 349.527 C 363.388 349.604,363.200 350.282,363.200 351.033 C 363.200 351.785,363.055 352.400,362.879 352.400 C 362.702 352.400,362.620 354.290,362.697 356.600 C 362.787 359.342,362.691 360.800,362.418 360.800 C 362.157 360.800,362.000 362.212,362.000 364.557 C 362.000 367.528,361.874 368.363,361.400 368.545 C 360.967 368.711,360.800 369.390,360.800 370.987 C 360.800 372.204,360.620 373.200,360.400 373.200 C 360.178 373.200,360.000 374.259,360.000 375.576 C 360.000 376.883,359.817 378.066,359.593 378.204 C 359.370 378.342,359.291 378.623,359.417 378.828 C 359.544 379.032,359.457 379.200,359.224 379.200 C 358.991 379.200,358.800 379.650,358.800 380.200 C 358.800 380.750,358.620 381.200,358.400 381.200 C 358.180 381.200,358.000 381.997,358.000 382.971 C 358.000 384.013,357.753 384.990,357.400 385.343 C 357.070 385.673,356.800 386.136,356.800 386.371 C 356.800 386.607,356.617 386.800,356.392 386.800 C 356.159 386.800,356.091 387.221,356.233 387.788 C 356.470 388.734,355.580 390.247,355.081 389.747 C 354.963 389.629,354.740 390.538,354.587 391.766 C 354.362 393.567,354.165 394.000,353.572 394.000 C 353.033 394.000,352.770 394.401,352.587 395.500 C 352.225 397.679,352.053 398.080,351.603 397.802 C 351.372 397.659,351.200 397.991,351.200 398.576 C 351.200 399.139,351.020 399.600,350.800 399.600 C 350.580 399.600,350.400 400.050,350.400 400.600 C 350.400 401.150,350.175 401.601,349.900 401.603 C 349.625 401.605,349.192 402.055,348.937 402.604 C 348.683 403.152,348.651 403.492,348.867 403.359 C 349.507 402.963,348.101 405.252,346.861 406.624 C 346.565 406.952,346.413 407.458,346.525 407.748 C 346.636 408.038,346.379 408.527,345.953 408.834 C 345.527 409.141,345.071 410.069,344.938 410.896 C 344.751 412.064,344.516 412.400,343.882 412.400 C 343.434 412.400,343.163 412.497,343.281 412.615 C 343.595 412.929,342.507 415.813,342.106 415.728 C 341.919 415.688,341.737 416.045,341.701 416.522 C 341.665 416.998,341.448 417.451,341.218 417.527 C 340.988 417.604,340.800 418.102,340.800 418.633 C 340.800 419.226,340.568 419.600,340.200 419.600 C 339.867 419.600,339.600 419.956,339.600 420.400 C 339.600 420.840,339.420 421.200,339.200 421.200 C 338.980 421.200,338.800 421.535,338.800 421.944 C 338.800 422.353,338.343 423.028,337.785 423.444 C 337.044 423.996,336.830 424.443,336.993 425.100 C 337.168 425.810,337.044 426.000,336.408 426.000 C 335.963 426.000,335.624 426.135,335.654 426.300 C 335.826 427.269,335.000 429.209,334.323 429.424 C 333.862 429.571,333.631 429.903,333.759 430.236 C 333.878 430.546,333.801 430.800,333.587 430.800 C 333.374 430.800,333.200 431.250,333.200 431.800 C 333.200 432.422,332.973 432.800,332.600 432.800 C 332.270 432.800,332.000 433.070,332.000 433.400 C 332.000 433.730,331.820 434.000,331.600 434.000 C 331.380 434.000,331.200 434.360,331.200 434.800 C 331.200 435.240,331.023 435.600,330.808 435.600 C 330.592 435.600,330.303 436.049,330.165 436.597 C 330.027 437.146,329.754 437.495,329.557 437.374 C 329.361 437.252,329.200 437.529,329.200 437.989 C 329.200 438.449,328.948 438.922,328.639 439.040 C 328.029 439.274,327.481 440.617,327.574 441.649 C 327.607 442.006,327.264 442.394,326.814 442.512 C 326.297 442.648,325.904 443.178,325.750 443.951 C 325.609 444.657,325.184 445.278,324.747 445.417 C 324.330 445.549,324.084 445.812,324.201 446.001 C 324.317 446.190,324.230 446.458,324.007 446.596 C 323.783 446.734,323.600 447.177,323.600 447.581 C 323.600 447.984,323.330 448.418,323.000 448.545 C 322.670 448.671,322.400 449.151,322.400 449.611 C 322.400 450.071,322.220 450.336,322.000 450.200 C 321.780 450.064,321.600 450.310,321.600 450.747 C 321.600 451.184,321.150 451.896,320.600 452.329 C 320.050 452.761,319.600 453.494,319.600 453.958 C 319.600 454.440,319.343 454.800,319.000 454.800 C 318.670 454.800,318.400 455.070,318.400 455.400 C 318.400 455.730,318.200 456.000,317.957 456.000 C 317.683 456.000,317.610 456.384,317.764 457.000 C 317.967 457.808,317.867 458.000,317.243 458.000 C 316.653 458.000,316.406 458.379,316.200 459.600 C 316.000 460.786,315.740 461.200,315.197 461.200 C 314.707 461.200,314.376 461.599,314.200 462.400 C 314.055 463.060,313.774 463.600,313.576 463.600 C 313.378 463.600,313.102 464.050,312.964 464.600 C 312.826 465.150,312.553 465.600,312.357 465.600 C 312.160 465.600,312.000 466.050,312.000 466.600 C 312.000 467.222,311.773 467.600,311.400 467.600 C 311.070 467.600,310.800 467.870,310.800 468.200 C 310.800 468.530,310.620 468.800,310.400 468.800 C 310.180 468.800,310.000 469.070,310.000 469.400 C 310.000 469.730,309.730 470.000,309.400 470.000 C 309.061 470.000,308.800 470.358,308.800 470.824 C 308.800 471.341,308.629 471.542,308.342 471.364 C 308.021 471.166,307.960 471.386,308.138 472.095 C 308.338 472.892,308.222 473.153,307.596 473.317 C 307.141 473.436,306.800 473.863,306.800 474.314 C 306.800 474.747,306.530 475.326,306.200 475.600 C 305.870 475.874,305.597 476.391,305.594 476.749 C 305.589 477.276,305.521 477.295,305.237 476.847 C 304.980 476.440,304.814 476.625,304.612 477.547 C 304.460 478.236,304.160 478.800,303.945 478.800 C 303.729 478.800,303.664 478.980,303.800 479.200 C 303.936 479.420,303.857 479.600,303.624 479.600 C 303.391 479.600,303.200 479.870,303.200 480.200 C 303.200 480.530,303.063 480.800,302.895 480.800 C 302.573 480.800,302.296 481.245,300.995 483.850 C 300.499 484.844,299.978 485.393,299.639 485.280 C 299.336 485.179,299.198 485.273,299.332 485.489 C 299.465 485.705,299.330 486.216,299.032 486.624 C 298.733 487.033,298.578 487.599,298.687 487.883 C 298.863 488.341,298.363 488.581,297.507 488.450 C 297.346 488.425,297.101 488.854,296.964 489.402 C 296.808 490.022,296.429 490.400,295.964 490.400 C 295.499 490.400,295.120 490.779,294.964 491.400 C 294.826 491.950,294.540 492.400,294.328 492.400 C 293.810 492.400,292.800 493.438,292.800 493.971 C 292.800 494.207,292.530 494.400,292.200 494.400 C 291.870 494.400,291.600 494.591,291.600 494.824 C 291.600 495.057,291.433 495.144,291.229 495.018 C 291.025 494.892,290.743 495.151,290.602 495.594 C 290.461 496.037,290.025 496.400,289.633 496.400 C 289.241 496.400,288.506 496.940,288.000 497.600 C 287.439 498.332,286.714 498.800,286.140 498.800 C 285.571 498.800,285.200 499.037,285.200 499.400 C 285.200 499.730,284.930 500.000,284.600 500.000 C 284.270 500.000,284.000 500.180,284.000 500.400 C 284.000 500.620,283.634 500.800,283.187 500.800 C 282.741 500.800,282.271 501.070,282.145 501.400 C 282.018 501.730,281.664 502.000,281.357 502.000 C 281.051 502.000,280.800 502.159,280.800 502.353 C 280.800 502.548,280.422 502.806,279.960 502.926 C 279.498 503.047,279.226 503.318,279.356 503.528 C 279.568 503.872,278.174 504.316,276.300 504.502 C 275.915 504.540,275.600 504.870,275.600 505.235 C 275.600 505.705,275.108 505.976,273.910 506.168 C 272.981 506.317,271.938 506.694,271.593 507.006 C 271.248 507.319,270.388 507.619,269.682 507.672 C 268.977 507.726,268.400 507.912,268.400 508.085 C 268.400 508.258,267.944 508.400,267.387 508.400 C 266.831 508.400,266.271 508.670,266.145 509.000 C 265.989 509.406,265.353 509.600,264.181 509.600 C 263.227 509.600,262.336 509.780,262.200 510.000 C 262.064 510.220,261.164 510.400,260.200 510.400 C 259.236 510.400,258.334 510.583,258.196 510.807 C 258.058 511.030,257.790 511.117,257.600 511.000 C 257.410 510.883,257.142 510.970,257.004 511.193 C 256.866 511.417,256.223 511.600,255.576 511.600 C 254.588 511.600,254.400 511.760,254.400 512.600 C 254.400 513.222,254.173 513.600,253.800 513.600 C 253.432 513.600,253.200 513.974,253.200 514.567 C 253.200 515.098,253.031 515.593,252.825 515.667 C 252.618 515.740,252.371 516.340,252.276 517.000 C 252.180 517.660,251.919 518.161,251.694 518.114 C 251.470 518.067,251.162 518.860,251.009 519.877 C 250.732 521.724,249.944 523.011,249.414 522.481 C 249.260 522.326,249.179 522.380,249.234 522.600 C 249.594 524.029,248.094 527.560,247.415 526.882 C 247.261 526.728,247.259 527.096,247.411 527.701 C 247.587 528.405,247.527 528.800,247.243 528.800 C 247.000 528.800,246.800 529.231,246.800 529.757 C 246.800 530.284,246.530 530.818,246.200 530.945 C 245.870 531.071,245.600 531.541,245.600 531.987 C 245.600 532.434,245.420 532.800,245.200 532.800 C 244.980 532.800,244.800 533.250,244.800 533.800 C 244.800 534.350,244.622 534.800,244.405 534.800 C 243.935 534.800,242.800 537.381,242.800 538.449 C 242.800 538.862,242.530 539.200,242.200 539.200 C 241.800 539.200,241.600 539.600,241.600 540.400 C 241.600 541.060,241.401 541.600,241.157 541.600 C 240.913 541.600,240.826 541.891,240.964 542.251 C 241.248 542.991,240.497 544.107,239.945 543.766 C 239.744 543.642,239.611 543.689,239.649 543.870 C 239.885 545.002,239.002 547.727,238.344 547.899 C 237.793 548.043,237.668 548.332,237.847 549.046 C 237.992 549.622,237.911 550.000,237.643 550.000 C 237.400 550.000,237.200 550.450,237.200 551.000 C 237.200 551.622,236.973 552.000,236.600 552.000 C 236.227 552.000,236.000 552.378,236.000 553.000 C 236.000 553.550,235.820 554.000,235.600 554.000 C 235.380 554.000,235.200 554.338,235.200 554.751 C 235.200 555.164,234.930 555.726,234.600 556.000 C 234.270 556.274,234.000 556.926,234.000 557.449 C 234.000 557.972,233.820 558.400,233.600 558.400 C 233.380 558.400,233.200 558.767,233.200 559.216 C 233.200 559.665,232.798 560.576,232.307 561.240 C 231.755 561.986,231.459 562.885,231.533 563.589 C 231.623 564.447,231.451 564.794,230.837 564.988 C 230.216 565.185,229.959 565.719,229.759 567.224 C 229.545 568.838,229.352 569.200,228.705 569.200 C 228.060 569.200,227.960 569.386,228.164 570.200 C 228.309 570.777,228.243 571.200,228.008 571.200 C 227.783 571.200,227.600 571.631,227.600 572.157 C 227.600 572.684,227.330 573.218,227.000 573.345 C 226.670 573.471,226.400 573.951,226.400 574.411 C 226.400 574.871,226.220 575.136,226.000 575.000 C 225.760 574.852,225.598 575.364,225.594 576.276 C 225.590 577.342,225.479 577.628,225.226 577.228 C 224.958 576.804,224.792 577.038,224.587 578.128 C 224.435 578.937,224.151 579.600,223.955 579.600 C 223.760 579.600,223.600 579.947,223.600 580.371 C 223.600 580.796,223.345 581.398,223.034 581.709 C 222.723 582.020,222.343 583.107,222.190 584.124 C 222.001 585.387,221.687 586.046,221.200 586.200 C 220.441 586.441,220.014 587.531,220.005 589.253 C 220.002 589.956,219.742 590.374,219.226 590.509 C 218.667 590.655,218.513 590.946,218.673 591.556 C 218.794 592.020,218.705 592.400,218.474 592.400 C 218.244 592.400,217.994 592.805,217.918 593.300 C 217.843 593.795,217.598 594.167,217.374 594.128 C 217.149 594.088,216.937 594.445,216.901 594.922 C 216.865 595.398,216.648 595.851,216.418 595.927 C 216.188 596.004,216.000 596.502,216.000 597.033 C 216.000 597.565,215.809 598.000,215.576 598.000 C 215.343 598.000,215.264 598.180,215.400 598.400 C 215.536 598.620,215.457 598.800,215.224 598.800 C 214.991 598.800,214.800 599.070,214.800 599.400 C 214.800 599.730,214.575 600.003,214.300 600.006 C 213.967 600.010,214.000 600.142,214.400 600.400 C 214.800 600.658,214.833 600.790,214.500 600.794 C 214.225 600.797,214.000 601.160,214.000 601.600 C 214.000 602.040,213.796 602.400,213.547 602.400 C 213.298 602.400,212.768 602.775,212.370 603.234 C 211.686 604.023,211.331 604.060,205.848 603.912 C 202.659 603.826,200.139 603.901,200.248 604.078 C 200.358 604.255,198.637 604.400,196.424 604.400 C 194.211 604.400,192.400 604.265,192.400 604.100 C 192.400 603.935,187.450 603.858,181.400 603.929 C 173.759 604.018,170.400 603.927,170.400 603.629 C 170.400 603.393,170.040 603.200,169.600 603.200 C 169.160 603.200,168.800 603.039,168.800 602.843 C 168.800 602.646,166.595 602.458,163.900 602.424 C 161.205 602.390,158.640 602.295,158.200 602.212 C 157.760 602.129,155.409 602.047,152.975 602.031 C 149.162 602.004,148.435 601.892,147.711 601.217 C 146.973 600.530,146.476 600.461,143.635 600.654 C 141.682 600.786,140.400 600.721,140.400 600.489 C 140.400 600.278,138.786 600.072,136.807 600.032 C 134.587 599.988,132.791 599.739,132.107 599.382 C 131.498 599.065,129.976 598.804,128.724 598.802 C 127.472 598.801,126.336 598.620,126.200 598.400 C 126.064 598.180,124.613 598.000,122.976 598.000 C 121.148 598.000,120.000 597.837,120.000 597.576 C 120.000 597.343,119.832 597.256,119.628 597.383 C 119.423 597.509,119.142 597.430,119.004 597.207 C 118.866 596.983,117.593 596.800,116.176 596.800 C 114.725 596.800,113.600 596.625,113.600 596.400 C 113.600 596.180,112.700 596.000,111.600 596.000 C 110.089 596.000,109.600 595.853,109.600 595.400 C 109.600 594.934,109.069 594.800,107.224 594.800 C 105.917 594.800,104.750 594.643,104.631 594.450 C 104.512 594.258,103.431 594.184,102.229 594.286 C 100.425 594.438,99.890 594.329,99.174 593.662 C 98.501 593.034,97.508 592.790,94.753 592.575 C 92.799 592.422,91.200 592.140,91.200 591.948 C 91.200 591.757,90.930 591.600,90.600 591.600 C 90.270 591.600,90.000 591.412,90.000 591.182 C 90.000 590.923,89.483 590.861,88.646 591.018 C 87.830 591.171,87.185 591.099,87.022 590.836 C 86.874 590.596,86.065 590.400,85.225 590.400 C 84.356 590.400,83.484 590.142,83.200 589.800 C 82.926 589.470,82.184 589.200,81.551 589.200 C 80.918 589.200,80.400 589.020,80.400 588.800 C 80.400 588.580,79.579 588.400,78.576 588.400 C 77.573 588.400,76.852 588.239,76.974 588.042 C 77.242 587.609,76.280 587.200,74.991 587.200 C 74.472 587.200,73.936 587.020,73.800 586.800 C 73.664 586.580,73.018 586.400,72.364 586.400 C 71.676 586.400,71.078 586.147,70.945 585.800 C 70.818 585.470,70.284 585.200,69.757 585.200 C 69.231 585.200,68.800 585.059,68.800 584.887 C 68.800 584.715,68.343 584.537,67.785 584.490 C 67.227 584.444,65.977 584.045,65.007 583.603 C 64.037 583.161,62.784 582.800,62.222 582.800 C 61.660 582.800,61.221 582.665,61.247 582.500 C 61.399 581.541,60.998 581.247,59.200 581.000 C 58.044 580.841,57.200 580.519,57.200 580.237 C 57.200 579.969,56.578 579.505,55.818 579.207 C 55.058 578.909,54.525 578.521,54.634 578.344 C 54.744 578.168,54.375 577.909,53.816 577.768 C 53.257 577.628,52.800 577.353,52.800 577.157 C 52.800 576.960,52.530 576.800,52.200 576.800 C 51.870 576.800,51.600 576.607,51.600 576.371 C 51.600 575.818,50.582 574.800,50.029 574.800 C 49.793 574.800,49.600 574.533,49.600 574.208 C 49.600 573.882,49.150 573.502,48.600 573.364 C 47.961 573.204,47.600 572.832,47.600 572.333 C 47.600 571.904,47.433 571.656,47.229 571.782 C 47.025 571.908,46.743 571.649,46.602 571.206 C 46.461 570.763,46.203 570.400,46.027 570.400 C 45.513 570.400,45.193 566.985,45.464 564.394 C 45.667 562.448,45.849 562.000,46.434 562.000 C 46.939 562.000,47.108 561.761,47.000 561.200 C 46.915 560.760,47.016 560.400,47.223 560.400 C 47.430 560.400,47.600 559.789,47.600 559.043 C 47.600 558.205,47.830 557.597,48.200 557.455 C 48.530 557.329,48.800 556.769,48.800 556.213 C 48.800 555.656,48.980 555.200,49.200 555.200 C 49.420 555.200,49.600 554.589,49.600 553.843 C 49.600 553.005,49.830 552.397,50.200 552.255 C 50.530 552.129,50.800 551.749,50.800 551.413 C 50.800 551.076,50.980 550.800,51.200 550.800 C 51.420 550.800,51.579 550.665,51.553 550.500 C 51.337 549.133,51.679 547.600,52.200 547.600 C 52.530 547.600,52.766 547.465,52.725 547.300 C 52.484 546.330,53.342 542.800,53.819 542.800 C 54.371 542.800,55.194 540.501,55.198 538.947 C 55.199 538.455,55.513 538.012,55.939 537.900 C 56.513 537.750,56.636 537.429,56.493 536.454 C 56.381 535.689,56.483 535.200,56.755 535.200 C 57.000 535.200,57.200 534.769,57.200 534.243 C 57.200 533.716,57.470 533.182,57.800 533.055 C 58.130 532.929,58.400 532.380,58.400 531.836 C 58.400 531.292,58.580 530.736,58.800 530.600 C 59.020 530.464,59.200 529.933,59.200 529.419 C 59.200 528.906,59.470 528.382,59.800 528.255 C 60.151 528.121,60.400 527.521,60.400 526.813 C 60.400 526.146,60.580 525.600,60.800 525.600 C 61.020 525.600,61.200 525.255,61.200 524.833 C 61.200 523.701,61.633 522.773,62.042 523.026 C 62.239 523.148,62.400 522.787,62.400 522.224 C 62.400 521.661,62.594 521.200,62.832 521.200 C 63.097 521.200,63.168 520.766,63.017 520.076 C 62.834 519.245,62.978 518.763,63.567 518.230 C 64.007 517.832,64.482 516.726,64.626 515.767 C 64.803 514.586,65.121 513.952,65.614 513.796 C 66.131 513.632,66.289 513.281,66.163 512.582 C 66.065 512.042,66.168 511.600,66.392 511.600 C 66.616 511.600,66.800 511.060,66.800 510.400 C 66.800 509.740,66.991 509.200,67.224 509.200 C 67.457 509.200,67.536 509.020,67.400 508.800 C 67.264 508.580,67.343 508.400,67.576 508.400 C 67.809 508.400,68.000 507.950,68.000 507.400 C 68.000 506.850,68.180 506.400,68.400 506.400 C 68.620 506.400,68.800 505.969,68.800 505.443 C 68.800 504.916,69.070 504.382,69.400 504.255 C 69.730 504.129,70.000 503.605,70.000 503.093 C 70.000 502.580,70.174 501.986,70.387 501.773 C 70.599 501.561,70.817 500.810,70.871 500.104 C 70.925 499.398,71.188 498.737,71.456 498.634 C 71.725 498.531,72.070 497.603,72.225 496.572 C 72.430 495.207,72.714 494.643,73.269 494.498 C 73.689 494.388,73.960 494.096,73.870 493.849 C 73.781 493.602,73.856 493.111,74.038 492.757 C 74.219 492.403,74.411 491.470,74.464 490.684 C 74.517 489.897,74.659 489.263,74.780 489.274 C 75.821 489.372,76.067 489.121,75.836 488.200 C 75.698 487.650,75.757 487.200,75.967 487.200 C 76.177 487.200,76.406 486.615,76.475 485.900 C 76.556 485.061,76.792 484.640,77.142 484.714 C 77.884 484.870,77.644 477.948,76.899 477.700 C 76.570 477.590,76.400 476.666,76.400 474.990 C 76.400 473.573,76.205 472.327,75.960 472.175 C 75.679 472.001,75.594 470.995,75.725 469.382 C 75.893 467.307,75.804 466.746,75.222 466.220 C 74.643 465.696,74.464 464.592,74.231 460.099 C 74.075 457.084,73.757 454.389,73.524 454.109 C 73.292 453.829,73.235 453.600,73.397 453.600 C 73.559 453.600,73.379 453.123,72.997 452.540 C 72.443 451.694,72.341 450.884,72.491 448.540 C 72.595 446.923,72.527 445.600,72.340 445.600 C 72.153 445.600,72.000 444.085,72.000 442.233 C 72.000 440.017,71.840 438.813,71.532 438.711 C 71.240 438.613,70.940 436.901,70.736 434.177 C 70.555 431.770,70.267 427.960,70.094 425.710 C 69.919 423.428,69.564 421.404,69.290 421.130 C 68.954 420.794,68.800 419.025,68.800 415.496 C 68.800 412.169,68.659 410.440,68.400 410.600 C 68.141 410.760,68.000 409.071,68.000 405.824 C 68.000 402.945,67.839 400.800,67.623 400.800 C 67.416 400.800,67.316 400.435,67.402 399.989 C 67.488 399.543,67.388 399.284,67.179 399.413 C 66.946 399.557,66.800 396.946,66.800 392.624 C 66.800 387.636,66.668 385.600,66.344 385.600 C 66.009 385.600,65.955 383.214,66.140 376.600 C 66.302 370.767,66.252 367.600,65.995 367.600 C 65.768 367.600,65.600 366.242,65.600 364.400 C 65.600 362.533,65.433 361.200,65.200 361.200 C 64.956 361.200,64.800 359.333,64.800 356.400 C 64.800 353.467,64.956 351.600,65.200 351.600 C 65.426 351.600,65.600 350.467,65.600 349.000 C 65.600 347.468,65.771 346.400,66.016 346.400 C 66.297 346.400,66.349 344.263,66.178 339.800 C 66.017 335.621,66.067 333.200,66.313 333.200 C 66.534 333.200,66.732 331.442,66.772 329.108 C 66.818 326.428,67.021 324.806,67.361 324.408 C 67.646 324.074,67.921 322.720,67.970 321.400 C 68.020 320.080,68.227 318.940,68.431 318.867 C 68.634 318.793,68.800 317.938,68.800 316.967 C 68.800 315.990,68.989 315.200,69.224 315.200 C 69.457 315.200,69.536 315.020,69.400 314.800 C 69.264 314.580,69.343 314.400,69.576 314.400 C 69.809 314.400,70.000 313.871,70.000 313.224 C 70.000 312.577,70.180 311.936,70.400 311.800 C 70.620 311.664,70.800 311.045,70.800 310.425 C 70.800 309.805,71.061 309.081,71.380 308.816 C 71.700 308.551,72.080 307.539,72.226 306.567 C 72.427 305.227,72.666 304.800,73.214 304.800 C 73.692 304.800,74.026 304.393,74.200 303.600 C 74.381 302.775,74.703 302.400,75.232 302.400 C 75.654 302.400,76.000 302.128,76.000 301.796 C 76.000 301.464,76.360 300.884,76.800 300.507 C 77.240 300.130,77.600 299.513,77.600 299.135 C 77.600 298.757,77.780 298.336,78.000 298.200 C 78.220 298.064,78.400 297.513,78.400 296.976 C 78.400 296.439,78.568 296.000,78.773 296.000 C 78.978 296.000,79.272 295.595,79.427 295.100 C 79.581 294.605,79.819 294.110,79.954 294.000 C 80.089 293.890,80.650 292.900,81.200 291.800 C 81.750 290.700,82.503 289.519,82.873 289.176 C 83.244 288.833,83.668 288.068,83.817 287.476 C 83.965 286.884,84.348 286.400,84.667 286.400 C 84.986 286.400,85.135 286.219,84.998 285.997 C 84.861 285.776,85.031 285.486,85.375 285.354 C 85.719 285.222,86.000 284.864,86.000 284.557 C 86.000 284.251,86.186 284.000,86.413 284.000 C 86.639 284.000,86.945 283.685,87.091 283.300 C 87.238 282.915,87.772 282.272,88.279 281.871 C 88.785 281.470,89.200 280.962,89.200 280.742 C 89.200 280.212,90.231 279.200,90.771 279.200 C 91.007 279.200,91.200 279.006,91.200 278.769 C 91.200 278.160,94.401 275.154,94.792 275.395 C 94.970 275.505,95.227 275.146,95.365 274.597 C 95.503 274.049,95.861 273.600,96.161 273.600 C 96.461 273.600,96.807 273.217,96.929 272.748 C 97.082 272.166,97.356 271.974,97.797 272.143 C 98.172 272.287,98.339 272.225,98.197 271.995 C 98.063 271.778,98.233 271.600,98.576 271.600 C 98.919 271.600,99.200 271.414,99.200 271.187 C 99.200 270.961,99.501 270.659,99.869 270.518 C 100.702 270.198,101.998 268.931,101.748 268.681 C 101.646 268.579,102.201 268.376,102.981 268.230 C 104.255 267.991,104.595 267.636,104.447 266.700 C 104.421 266.535,104.822 266.400,105.339 266.400 C 106.412 266.400,108.132 265.081,107.693 264.595 C 107.532 264.417,107.606 264.390,107.858 264.534 C 108.110 264.678,108.818 264.536,109.430 264.218 C 110.042 263.901,110.695 263.735,110.881 263.850 C 111.067 263.965,111.170 263.825,111.110 263.539 C 111.049 263.253,111.405 262.957,111.900 262.882 C 112.395 262.806,112.800 262.577,112.800 262.372 C 112.800 262.167,113.250 262.000,113.800 262.000 C 114.422 262.000,114.800 261.773,114.800 261.400 C 114.800 261.027,115.178 260.800,115.800 260.800 C 116.350 260.800,116.800 260.620,116.800 260.400 C 116.800 260.180,117.256 260.000,117.813 260.000 C 118.369 260.000,118.923 259.746,119.042 259.436 C 119.176 259.085,120.174 258.766,121.678 258.591 C 123.574 258.371,124.141 258.147,124.296 257.555 C 124.443 256.992,124.863 256.798,125.947 256.791 C 127.624 256.780,130.404 254.603,130.509 253.218 C 130.543 252.768,130.794 252.400,131.067 252.400 C 131.340 252.400,131.680 251.782,131.821 251.028 C 132.014 249.998,132.235 249.715,132.705 249.896 C 133.120 250.055,133.233 249.977,133.040 249.665 C 132.875 249.398,133.019 249.091,133.375 248.954 C 133.719 248.822,134.000 248.374,134.000 247.957 C 134.000 247.541,134.270 247.200,134.600 247.200 C 134.930 247.200,135.200 246.930,135.200 246.600 C 135.200 246.270,135.380 246.000,135.600 246.000 C 135.820 246.000,136.000 245.730,136.000 245.400 C 136.000 245.070,136.226 244.800,136.502 244.800 C 136.779 244.800,137.231 244.289,137.507 243.665 C 137.783 243.041,138.464 242.287,139.019 241.990 C 139.574 241.693,139.938 241.214,139.827 240.926 C 139.716 240.637,140.070 240.111,140.613 239.755 C 141.156 239.399,141.600 238.769,141.600 238.354 C 141.600 237.939,141.868 237.600,142.197 237.600 C 142.525 237.600,143.018 237.240,143.293 236.800 C 143.568 236.360,143.942 236.000,144.125 236.000 C 144.560 236.000,145.600 234.953,145.600 234.515 C 145.600 234.327,146.140 233.854,146.800 233.464 C 147.460 233.074,148.000 232.585,148.000 232.377 C 148.000 232.170,148.282 232.000,148.626 232.000 C 148.970 232.000,149.706 231.460,150.261 230.800 C 150.817 230.140,151.524 229.600,151.832 229.600 C 152.141 229.600,152.618 229.240,152.893 228.800 C 153.168 228.360,153.560 228.000,153.765 228.000 C 153.969 228.000,154.497 227.685,154.937 227.300 C 155.512 226.797,155.642 226.769,155.400 227.200 C 155.158 227.631,155.288 227.603,155.863 227.100 C 156.303 226.715,156.874 226.400,157.131 226.400 C 157.389 226.400,157.600 226.220,157.600 226.000 C 157.600 225.780,157.941 225.600,158.357 225.600 C 158.774 225.600,159.218 225.330,159.345 225.000 C 159.489 224.623,160.101 224.400,160.987 224.400 C 161.764 224.400,162.400 224.220,162.400 224.000 C 162.400 223.780,163.017 223.600,163.771 223.600 C 164.526 223.600,165.413 223.330,165.743 223.000 C 166.477 222.266,172.400 222.126,172.400 222.843 C 172.400 223.086,172.679 223.178,173.021 223.047 C 173.377 222.911,173.537 222.978,173.397 223.205 C 173.257 223.432,173.664 223.600,174.353 223.600 C 175.013 223.600,175.664 223.780,175.800 224.000 C 175.936 224.220,176.384 224.400,176.795 224.400 C 177.206 224.400,177.813 224.670,178.143 225.000 C 178.473 225.330,178.936 225.600,179.171 225.600 C 179.407 225.600,179.600 225.780,179.600 226.000 C 179.600 226.220,180.050 226.400,180.600 226.400 C 181.217 226.400,181.600 226.627,181.600 226.992 C 181.600 227.726,183.690 228.330,183.913 227.661 C 183.998 227.405,184.261 227.314,184.496 227.459 C 184.731 227.605,184.812 227.543,184.676 227.322 C 184.539 227.102,184.742 226.579,185.126 226.161 C 185.511 225.742,185.855 224.977,185.891 224.460 C 185.927 223.943,186.216 223.313,186.534 223.060 C 186.852 222.807,187.322 221.935,187.580 221.122 C 187.937 219.994,188.208 219.701,188.724 219.885 C 189.096 220.019,189.271 219.985,189.114 219.811 C 188.957 219.637,189.040 219.113,189.299 218.647 C 189.558 218.181,189.727 217.652,189.675 217.470 C 189.623 217.289,189.765 217.255,189.990 217.394 C 190.216 217.533,190.400 217.446,190.400 217.200 C 190.400 216.954,190.565 216.855,190.767 216.980 C 190.970 217.105,191.254 216.665,191.399 216.003 C 191.545 215.342,191.842 214.800,192.060 214.800 C 192.588 214.800,193.600 213.767,193.600 213.229 C 193.600 212.993,193.840 212.800,194.132 212.800 C 194.425 212.800,194.885 212.388,195.154 211.885 C 195.423 211.382,196.039 210.796,196.522 210.582 C 197.005 210.368,197.352 209.900,197.293 209.543 C 197.195 208.947,198.065 208.595,200.300 208.327 C 200.575 208.294,200.800 207.954,200.800 207.571 C 200.800 207.072,201.026 206.934,201.600 207.084 C 202.047 207.201,202.400 207.096,202.400 206.847 C 202.400 206.601,202.771 206.400,203.224 206.400 C 203.677 206.400,203.948 206.239,203.826 206.042 C 203.573 205.633,204.501 205.200,205.633 205.200 C 206.055 205.200,206.400 205.020,206.400 204.800 C 206.400 204.580,207.126 204.400,208.013 204.400 C 209.077 204.400,209.703 204.196,209.855 203.800 C 210.184 202.945,218.243 202.955,219.376 203.813 C 219.804 204.136,220.839 204.400,221.676 204.400 C 222.514 204.400,223.200 204.580,223.200 204.800 C 223.200 205.020,223.727 205.200,224.371 205.200 C 225.016 205.200,225.813 205.470,226.143 205.800 C 226.473 206.130,227.015 206.400,227.348 206.400 C 227.681 206.400,228.054 206.563,228.177 206.762 C 228.300 206.962,228.761 207.031,229.200 206.916 C 229.807 206.757,230.000 206.904,230.000 207.525 C 230.000 208.214,230.339 208.385,232.157 208.612 C 234.851 208.949,236.144 208.593,235.881 207.587 C 235.774 207.177,235.936 206.757,236.248 206.637 C 236.555 206.519,237.014 205.967,237.268 205.411 C 237.521 204.855,237.980 204.400,238.288 204.400 C 238.595 204.400,238.736 204.580,238.600 204.800 C 238.464 205.020,238.633 205.200,238.976 205.200 C 239.319 205.200,239.579 205.065,239.553 204.900 C 239.246 202.955,239.684 193.205,240.068 193.442 C 240.383 193.636,240.452 193.513,240.281 193.066 C 240.140 192.700,240.199 192.400,240.413 192.400 C 240.628 192.400,240.800 191.069,240.800 189.400 C 240.800 187.667,240.969 186.400,241.200 186.400 C 241.433 186.400,241.600 185.073,241.600 183.220 C 241.600 180.903,241.753 179.953,242.163 179.720 C 242.516 179.520,242.809 178.426,242.946 176.800 C 243.435 170.995,243.831 168.409,244.303 167.937 C 244.585 167.655,244.800 166.436,244.800 165.120 C 244.800 163.844,244.959 162.800,245.154 162.800 C 245.349 162.800,245.416 161.649,245.303 160.243 C 245.117 157.925,245.174 157.662,245.915 157.427 C 246.655 157.192,246.759 156.718,247.017 152.384 C 247.174 149.753,247.439 147.600,247.605 147.600 C 248.141 147.600,248.512 145.853,248.431 143.700 C 248.384 142.439,248.522 141.600,248.776 141.600 C 249.027 141.600,249.200 140.623,249.200 139.200 C 249.200 137.778,249.373 136.800,249.624 136.800 C 249.857 136.800,249.944 136.632,249.817 136.428 C 249.691 136.223,249.770 135.942,249.993 135.804 C 250.217 135.666,250.400 134.674,250.400 133.600 C 250.400 132.526,250.580 131.536,250.800 131.400 C 251.020 131.264,251.200 130.083,251.200 128.776 C 251.200 127.371,251.373 126.400,251.624 126.400 C 251.857 126.400,251.931 126.212,251.789 125.982 C 251.647 125.753,251.708 125.348,251.924 125.082 C 252.328 124.587,252.574 122.859,253.128 116.626 C 253.320 114.469,253.636 112.988,253.923 112.892 C 254.224 112.792,254.400 111.813,254.400 110.233 C 254.400 108.858,254.532 107.602,254.692 107.441 C 254.853 107.280,254.927 105.900,254.856 104.374 C 254.773 102.561,254.879 101.600,255.164 101.600 C 255.404 101.600,255.600 101.319,255.600 100.976 C 255.600 100.633,255.784 100.467,256.010 100.606 C 256.235 100.745,256.383 100.711,256.338 100.530 C 255.931 98.879,256.994 90.540,257.673 90.064 C 258.310 89.618,258.394 89.232,258.174 87.764 C 257.996 86.576,258.055 86.000,258.355 86.000 C 258.616 86.000,258.800 85.256,258.800 84.200 C 258.800 83.210,258.974 82.400,259.186 82.400 C 259.399 82.400,259.692 81.496,259.839 80.391 C 259.986 79.286,260.262 78.285,260.453 78.167 C 260.644 78.049,260.800 77.153,260.800 76.176 C 260.800 74.864,260.957 74.400,261.400 74.400 C 261.817 74.400,262.000 73.980,262.000 73.024 C 262.000 72.267,262.180 71.536,262.400 71.400 C 262.620 71.264,262.800 70.623,262.800 69.976 C 262.800 69.197,263.003 68.800,263.400 68.800 C 263.800 68.800,264.000 68.400,264.000 67.600 C 264.000 66.940,264.192 66.400,264.427 66.400 C 264.676 66.400,264.745 66.057,264.593 65.577 C 264.411 65.006,264.595 64.524,265.192 64.007 C 265.665 63.596,266.033 63.155,266.009 63.027 C 265.865 62.261,266.563 59.999,266.945 59.994 C 267.195 59.991,267.130 59.813,266.800 59.600 C 266.311 59.284,266.359 59.211,267.063 59.206 C 267.748 59.201,267.879 59.023,267.700 58.337 C 267.545 57.746,267.620 57.565,267.937 57.761 C 268.242 57.949,268.400 57.697,268.400 57.024 C 268.400 56.461,268.568 56.000,268.773 56.000 C 268.978 56.000,269.265 55.626,269.410 55.170 C 269.554 54.713,269.776 54.442,269.901 54.567 C 270.140 54.807,270.625 54.054,271.945 51.400 C 272.382 50.520,273.097 49.547,273.534 49.238 C 273.970 48.929,274.234 48.434,274.121 48.138 C 273.989 47.793,274.214 47.600,274.750 47.600 C 275.307 47.600,275.668 47.267,275.836 46.600 C 275.998 45.953,276.367 45.600,276.881 45.600 C 277.338 45.600,277.764 45.261,277.884 44.800 C 278.019 44.282,278.430 44.000,279.047 44.000 C 279.571 44.000,280.000 43.820,280.000 43.600 C 280.000 43.380,280.450 43.200,281.000 43.200 C 281.622 43.200,282.000 42.973,282.000 42.600 C 282.000 42.156,282.467 42.000,283.800 42.000 C 284.790 42.000,285.600 41.820,285.600 41.600 C 285.600 41.380,285.960 41.200,286.400 41.200 C 286.840 41.200,287.200 41.370,287.200 41.578 M234.194 215.100 C 234.072 215.705,233.798 216.753,233.586 217.428 C 233.374 218.104,233.200 219.049,233.200 219.528 C 233.200 220.089,232.951 220.402,232.500 220.406 C 231.902 220.411,231.887 220.469,232.400 220.800 C 232.800 221.058,232.833 221.190,232.500 221.194 C 232.225 221.197,232.000 221.639,232.000 222.176 C 232.000 222.713,231.844 223.249,231.654 223.367 C 231.463 223.485,231.394 224.035,231.500 224.590 C 231.655 225.401,231.534 225.600,230.884 225.600 C 230.217 225.600,230.027 225.950,229.800 227.600 C 229.583 229.180,229.369 229.600,228.785 229.600 C 228.261 229.600,228.091 229.833,228.200 230.400 C 228.285 230.840,228.184 231.200,227.977 231.200 C 227.770 231.200,227.600 231.650,227.600 232.200 C 227.600 232.822,227.373 233.200,227.000 233.200 C 226.627 233.200,226.400 233.578,226.400 234.200 C 226.400 234.750,226.220 235.200,226.000 235.200 C 225.780 235.200,225.600 235.650,225.600 236.200 C 225.600 236.822,225.373 237.200,225.000 237.200 C 224.627 237.200,224.400 237.578,224.400 238.200 C 224.400 238.750,224.220 239.200,224.000 239.200 C 223.780 239.200,223.600 239.560,223.600 240.000 C 223.600 240.440,223.368 240.800,223.085 240.800 C 222.802 240.800,222.540 241.202,222.503 241.694 C 222.466 242.186,222.248 242.651,222.018 242.727 C 221.788 242.804,221.710 243.299,221.844 243.833 C 222.040 244.614,221.933 244.800,221.289 244.800 C 220.643 244.800,220.436 245.163,220.206 246.700 C 220.050 247.745,219.716 248.728,219.464 248.883 C 219.128 249.092,219.142 249.302,219.520 249.680 C 219.886 250.046,220.115 250.066,220.317 249.751 C 220.472 249.507,221.005 249.181,221.500 249.027 C 222.026 248.863,222.400 248.425,222.400 247.973 C 222.400 247.548,222.670 247.200,223.000 247.200 C 223.330 247.200,223.600 247.021,223.600 246.803 C 223.600 246.585,223.949 246.000,224.376 245.503 C 224.802 245.006,225.522 244.167,225.976 243.639 C 226.429 243.110,226.800 242.435,226.800 242.139 C 226.800 241.842,226.977 241.600,227.192 241.600 C 227.408 241.600,227.693 241.167,227.826 240.638 C 227.959 240.109,228.429 239.581,228.870 239.466 C 229.470 239.309,229.606 239.048,229.409 238.428 C 229.255 237.944,229.323 237.600,229.573 237.600 C 229.808 237.600,230.000 237.240,230.000 236.800 C 230.000 236.356,230.267 236.000,230.600 236.000 C 230.973 236.000,231.200 235.622,231.200 235.000 C 231.200 234.450,231.380 234.000,231.600 234.000 C 231.820 234.000,232.000 233.550,232.000 233.000 C 232.000 232.378,232.227 232.000,232.600 232.000 C 232.973 232.000,233.200 231.622,233.200 231.000 C 233.200 230.450,233.380 230.000,233.600 230.000 C 233.820 230.000,234.000 229.473,234.000 228.829 C 234.000 228.184,234.270 227.387,234.600 227.057 C 234.930 226.727,235.200 225.994,235.200 225.429 C 235.200 224.863,235.335 224.400,235.500 224.400 C 235.665 224.400,235.800 222.060,235.800 219.200 C 235.800 214.536,235.729 214.000,235.108 214.000 C 234.673 214.000,234.333 214.409,234.194 215.100 M173.125 239.471 C 172.753 239.569,172.393 240.043,172.325 240.525 C 172.246 241.079,171.870 241.447,171.300 241.528 C 170.805 241.598,170.400 241.899,170.400 242.197 C 170.400 242.495,169.860 243.278,169.200 243.938 C 168.540 244.598,168.000 245.512,168.000 245.969 C 168.000 246.441,167.741 246.800,167.400 246.800 C 167.070 246.800,166.800 247.070,166.800 247.400 C 166.800 247.730,166.640 248.000,166.443 248.000 C 166.247 248.000,165.974 248.450,165.836 249.000 C 165.698 249.550,165.416 250.000,165.211 250.000 C 165.005 250.000,164.714 250.653,164.564 251.452 C 164.396 252.348,164.022 252.974,163.586 253.088 C 163.107 253.213,162.797 253.827,162.622 254.994 C 162.445 256.172,162.137 256.775,161.648 256.903 C 161.255 257.006,160.901 257.340,160.860 257.645 C 160.410 261.074,160.218 261.845,159.727 262.204 C 158.961 262.764,159.473 264.000,160.471 264.000 C 161.212 264.000,162.643 262.926,162.564 262.429 C 162.458 261.763,162.960 260.800,163.413 260.800 C 163.699 260.800,164.172 260.260,164.464 259.600 C 164.756 258.940,165.221 258.400,165.498 258.400 C 165.774 258.400,166.000 258.040,166.000 257.600 C 166.000 257.160,166.180 256.800,166.400 256.800 C 166.620 256.800,166.800 256.524,166.800 256.187 C 166.800 255.851,167.070 255.471,167.400 255.345 C 167.730 255.218,168.000 254.853,168.000 254.534 C 168.000 254.199,168.194 254.073,168.458 254.236 C 168.781 254.435,168.838 254.205,168.651 253.460 C 168.403 252.474,168.643 252.207,169.658 252.339 C 169.800 252.357,170.041 251.709,170.192 250.900 C 170.344 250.090,170.806 249.191,171.218 248.903 C 171.632 248.612,171.866 248.115,171.740 247.789 C 171.616 247.465,171.714 247.200,171.957 247.200 C 172.201 247.200,172.400 246.840,172.400 246.400 C 172.400 245.956,172.667 245.600,173.000 245.600 C 173.373 245.600,173.600 245.222,173.600 244.600 C 173.600 244.050,173.780 243.600,174.000 243.600 C 174.220 243.600,174.400 243.150,174.400 242.600 C 174.400 241.978,174.627 241.600,175.000 241.600 C 175.400 241.600,175.600 241.200,175.600 240.400 C 175.600 239.171,175.048 238.963,173.125 239.471 M119.200 263.443 C 119.200 263.702,118.930 264.018,118.600 264.145 C 118.270 264.271,118.000 264.721,118.000 265.144 C 118.000 265.636,117.631 266.006,116.977 266.170 C 116.184 266.369,116.011 266.603,116.204 267.213 C 116.400 267.830,116.267 268.000,115.590 268.000 C 115.062 268.000,114.644 268.311,114.516 268.800 C 114.401 269.240,114.160 269.600,113.980 269.600 C 113.801 269.600,113.529 269.994,113.376 270.475 C 113.224 270.956,112.492 271.922,111.749 272.622 C 111.007 273.322,110.400 274.067,110.400 274.278 C 110.400 274.488,109.950 275.083,109.400 275.600 C 108.850 276.117,108.400 276.778,108.400 277.070 C 108.400 277.361,108.130 277.600,107.800 277.600 C 107.470 277.600,107.200 277.791,107.200 278.024 C 107.200 278.257,106.992 278.319,106.738 278.162 C 106.457 277.988,106.385 278.052,106.553 278.324 C 106.705 278.570,106.463 279.137,106.015 279.585 C 105.567 280.033,105.200 280.552,105.200 280.739 C 105.200 281.308,103.736 282.803,103.455 282.522 C 103.310 282.377,103.258 282.875,103.339 283.629 C 103.487 285.002,105.200 286.011,105.200 284.725 C 105.200 284.434,105.785 283.937,106.500 283.621 C 107.215 283.306,108.128 282.632,108.529 282.124 C 108.930 281.616,109.515 281.200,109.829 281.200 C 110.143 281.200,110.400 280.930,110.400 280.600 C 110.400 280.270,110.578 280.000,110.795 280.000 C 111.404 280.000,112.800 278.685,112.800 278.111 C 112.800 277.830,113.070 277.600,113.400 277.600 C 113.946 277.600,114.157 277.165,113.900 276.568 C 113.845 276.440,114.250 276.086,114.800 275.782 C 115.350 275.477,115.625 275.222,115.411 275.214 C 115.197 275.206,115.422 274.920,115.911 274.577 C 116.400 274.235,116.800 273.605,116.800 273.177 C 116.800 272.750,117.070 272.400,117.400 272.400 C 117.733 272.400,118.000 272.044,118.000 271.600 C 118.000 271.160,118.180 270.800,118.400 270.800 C 118.620 270.800,118.800 270.453,118.800 270.029 C 118.800 269.604,119.037 269.019,119.326 268.729 C 119.743 268.309,120.800 264.360,120.800 263.219 C 120.800 263.083,120.440 262.971,120.000 262.971 C 119.560 262.971,119.200 263.184,119.200 263.443 " stroke="none" fill="#1c64ec" fill-rule="evenodd"></path><path id="path1" d="M312.509 60.000 C 312.509 60.990,312.587 61.395,312.682 60.900 C 312.778 60.405,312.778 59.595,312.682 59.100 C 312.587 58.605,312.509 59.010,312.509 60.000 M304.893 63.600 C 304.893 64.370,304.975 64.685,305.076 64.300 C 305.176 63.915,305.176 63.285,305.076 62.900 C 304.975 62.515,304.893 62.830,304.893 63.600 M250.520 83.600 C 250.520 84.810,250.595 85.305,250.687 84.700 C 250.778 84.095,250.778 83.105,250.687 82.500 C 250.595 81.895,250.520 82.390,250.520 83.600 M304.920 85.200 C 304.920 86.410,304.995 86.905,305.087 86.300 C 305.178 85.695,305.178 84.705,305.087 84.100 C 304.995 83.495,304.920 83.990,304.920 85.200 M312.537 90.200 C 312.539 91.960,312.609 92.630,312.693 91.689 C 312.778 90.749,312.777 89.309,312.691 88.489 C 312.605 87.670,312.536 88.440,312.537 90.200 M247.301 100.200 C 247.305 101.080,247.387 101.393,247.483 100.895 C 247.579 100.398,247.575 99.678,247.475 99.295 C 247.375 98.913,247.296 99.320,247.301 100.200 M254.928 104.000 C 254.928 105.430,255.001 106.015,255.089 105.300 C 255.178 104.585,255.178 103.415,255.089 102.700 C 255.001 101.985,254.928 102.570,254.928 104.000 M240.914 139.400 C 240.917 140.500,240.995 140.903,241.087 140.295 C 241.179 139.686,241.177 138.786,241.082 138.295 C 240.987 137.803,240.911 138.300,240.914 139.400 M248.501 143.000 C 248.505 143.880,248.587 144.193,248.683 143.695 C 248.779 143.198,248.775 142.478,248.675 142.095 C 248.575 141.713,248.496 142.120,248.501 143.000 M298.550 155.000 C 298.551 157.420,298.616 158.358,298.696 157.085 C 298.776 155.812,298.775 153.832,298.694 152.685 C 298.614 151.538,298.549 152.580,298.550 155.000 M237.693 156.400 C 237.693 157.170,237.775 157.485,237.876 157.100 C 237.976 156.715,237.976 156.085,237.876 155.700 C 237.775 155.315,237.693 155.630,237.693 156.400 M245.320 159.600 C 245.320 160.810,245.395 161.305,245.487 160.700 C 245.578 160.095,245.578 159.105,245.487 158.500 C 245.395 157.895,245.320 158.390,245.320 159.600 M306.167 158.142 C 306.052 158.440,306.015 159.835,306.085 161.242 L 306.211 163.800 306.405 160.699 C 306.600 157.596,306.556 157.127,306.167 158.142 M295.334 186.800 C 295.334 188.450,295.405 189.125,295.491 188.300 C 295.578 187.475,295.578 186.125,295.491 185.300 C 295.405 184.475,295.334 185.150,295.334 186.800 M302.974 188.524 C 302.863 188.813,302.825 191.108,302.889 193.624 L 303.005 198.200 303.202 193.099 C 303.397 188.065,303.369 187.494,302.974 188.524 M231.309 197.200 C 231.309 198.190,231.387 198.595,231.482 198.100 C 231.578 197.605,231.578 196.795,231.482 196.300 C 231.387 195.805,231.309 196.210,231.309 197.200 M235.751 219.200 C 235.751 221.730,235.816 222.765,235.896 221.500 C 235.975 220.235,235.975 218.165,235.896 216.900 C 235.816 215.635,235.751 216.670,235.751 219.200 M360.509 245.200 C 360.509 246.190,360.587 246.595,360.682 246.100 C 360.778 245.605,360.778 244.795,360.682 244.300 C 360.587 243.805,360.509 244.210,360.509 245.200 M125.081 245.839 C 124.686 246.368,124.508 246.800,124.685 246.800 C 125.034 246.800,126.138 245.201,125.928 245.000 C 125.857 244.933,125.477 245.311,125.081 245.839 M322.154 256.977 C 322.032 257.294,322.003 257.879,322.089 258.277 C 322.187 258.728,322.324 258.512,322.454 257.700 C 322.671 256.338,322.530 255.996,322.154 256.977 M308.131 281.800 C 308.133 283.340,308.205 283.921,308.292 283.091 C 308.379 282.261,308.377 281.001,308.289 280.291 C 308.200 279.581,308.129 280.260,308.131 281.800 M315.720 286.400 C 315.720 287.610,315.795 288.105,315.887 287.500 C 315.978 286.895,315.978 285.905,315.887 285.300 C 315.795 284.695,315.720 285.190,315.720 286.400 M370.101 301.800 C 370.105 302.680,370.187 302.993,370.283 302.495 C 370.379 301.998,370.375 301.278,370.275 300.895 C 370.175 300.513,370.096 300.920,370.101 301.800 M304.940 313.200 C 304.940 315.070,305.009 315.835,305.093 314.900 C 305.177 313.965,305.177 312.435,305.093 311.500 C 305.009 310.565,304.940 311.330,304.940 313.200 M312.557 320.400 C 312.557 323.370,312.620 324.585,312.697 323.100 C 312.774 321.615,312.774 319.185,312.697 317.700 C 312.620 316.215,312.557 317.430,312.557 320.400 M302.806 317.833 C 302.809 318.695,302.970 319.649,303.163 319.954 C 303.378 320.293,303.432 319.749,303.304 318.554 C 303.042 316.117,302.798 315.764,302.806 317.833 M295.044 321.000 C 295.373 322.471,295.602 322.790,295.594 321.767 C 295.591 321.345,295.405 320.730,295.182 320.400 C 294.885 319.962,294.848 320.124,295.044 321.000 M58.546 330.600 C 58.547 332.800,58.614 333.649,58.695 332.487 C 58.776 331.324,58.776 329.524,58.693 328.487 C 58.611 327.449,58.545 328.400,58.546 330.600 M298.493 332.400 C 298.493 333.170,298.575 333.485,298.676 333.100 C 298.776 332.715,298.776 332.085,298.676 331.700 C 298.575 331.315,298.493 331.630,298.493 332.400 M66.140 336.400 C 66.140 338.270,66.209 339.035,66.293 338.100 C 66.377 337.165,66.377 335.635,66.293 334.700 C 66.209 333.765,66.140 334.530,66.140 336.400 M362.528 358.400 C 362.528 359.830,362.601 360.415,362.689 359.700 C 362.778 358.985,362.778 357.815,362.689 357.100 C 362.601 356.385,362.528 356.970,362.528 358.400 M370.167 360.542 C 370.052 360.840,370.015 362.235,370.085 363.642 L 370.211 366.200 370.405 363.099 C 370.600 359.996,370.556 359.527,370.167 360.542 M66.157 380.400 C 66.157 383.370,66.220 384.585,66.297 383.100 C 66.374 381.615,66.374 379.185,66.297 377.700 C 66.220 376.215,66.157 377.430,66.157 380.400 M58.560 390.600 C 58.561 393.900,58.622 395.197,58.698 393.482 C 58.773 391.767,58.772 389.067,58.697 387.482 C 58.621 385.897,58.559 387.300,58.560 390.600 M72.454 449.276 C 72.425 450.748,72.535 452.036,72.700 452.139 C 72.865 452.241,72.948 451.397,72.884 450.262 C 72.694 446.853,72.512 446.437,72.454 449.276 M64.914 453.400 C 64.917 454.500,64.995 454.903,65.087 454.295 C 65.179 453.686,65.177 452.786,65.082 452.295 C 64.987 451.803,64.911 452.300,64.914 453.400 M75.632 470.276 C 75.614 471.198,75.742 472.041,75.916 472.148 C 76.090 472.256,76.167 471.682,76.087 470.872 C 75.869 468.658,75.667 468.395,75.632 470.276 M68.124 474.200 C 68.126 475.520,68.201 476.012,68.290 475.293 C 68.379 474.574,68.377 473.494,68.286 472.893 C 68.195 472.292,68.122 472.880,68.124 474.200 M72.554 494.977 C 72.432 495.294,72.403 495.879,72.489 496.277 C 72.587 496.728,72.724 496.512,72.854 495.700 C 73.071 494.338,72.930 493.996,72.554 494.977 M254.752 531.113 C 254.621 531.907,254.679 532.281,254.901 532.059 C 255.103 531.857,255.201 531.267,255.119 530.746 C 254.993 529.945,254.937 530.002,254.752 531.113 M100.300 594.282 C 100.795 594.378,101.605 594.378,102.100 594.282 C 102.595 594.187,102.190 594.109,101.200 594.109 C 100.210 594.109,99.805 594.187,100.300 594.282 M84.305 598.683 C 84.802 598.779,85.522 598.775,85.905 598.675 C 86.287 598.575,85.880 598.496,85.000 598.501 C 84.120 598.505,83.807 598.587,84.305 598.683 M141.305 600.687 C 141.914 600.779,142.814 600.777,143.305 600.682 C 143.797 600.587,143.300 600.511,142.200 600.514 C 141.100 600.517,140.697 600.595,141.305 600.687 M174.522 603.899 C 176.899 603.970,180.679 603.969,182.922 603.898 C 185.165 603.827,183.220 603.769,178.600 603.769 C 173.980 603.770,172.145 603.828,174.522 603.899 M188.300 603.882 C 188.795 603.978,189.605 603.978,190.100 603.882 C 190.595 603.787,190.190 603.709,189.200 603.709 C 188.210 603.709,187.805 603.787,188.300 603.882 M206.313 603.895 C 207.476 603.976,209.276 603.976,210.313 603.893 C 211.351 603.811,210.400 603.745,208.200 603.746 C 206.000 603.747,205.151 603.814,206.313 603.895 M136.000 608.247 C 138.349 608.545,141.511 608.577,141.339 608.300 C 141.237 608.135,139.768 608.027,138.076 608.060 C 136.384 608.093,135.450 608.177,136.000 608.247 M168.100 611.494 C 169.145 611.576,170.855 611.576,171.900 611.494 C 172.945 611.412,172.090 611.344,170.000 611.344 C 167.910 611.344,167.055 611.412,168.100 611.494 M212.645 611.528 C 212.533 611.708,212.973 611.777,213.621 611.682 C 214.270 611.587,214.800 611.440,214.800 611.355 C 214.800 611.050,212.843 611.207,212.645 611.528 " stroke="none" fill="#2064ec" fill-rule="evenodd"></path></g></svg>