<?xml version="1.0" encoding="UTF-8"?>
<svg width="22px" height="32px" viewBox="0 0 22 32" version="1.1" xmlns="http://www.w3.org/2000/svg" xmlns:xlink="http://www.w3.org/1999/xlink">
    <title>Map_marker</title>
    <g id="Page-1" stroke="none" stroke-width="1" fill="none" fill-rule="evenodd">
        <g id="Map_marker" transform="translate(0.000000, 0.000000)" fill="#FFFFFF" fill-rule="nonzero">
            <g id="g3027" transform="translate(10.666667, 16.000000) scale(-1, 1) rotate(-180.000000) translate(-10.666667, -16.000000) translate(0.000000, 0.000000)">
                <path d="M16,21.3333333 C16,22.8055556 15.4791667,24.0625 14.4375,25.1041667 C13.3958333,26.1458333 12.1388889,26.6666667 10.6666667,26.6666667 C9.19444444,26.6666667 7.9375,26.1458333 6.89583333,25.1041667 C5.85416667,24.0625 5.33333333,22.8055556 5.33333333,21.3333333 C5.33333333,19.8611111 5.85416667,18.6041667 6.89583333,17.5625 C7.9375,16.5208333 9.19444444,16 10.6666667,16 C12.1388889,16 13.3958333,16.5208333 14.4375,17.5625 C15.4791667,18.6041667 16,19.8611111 16,21.3333333 Z M21.3333333,21.3333333 C21.3333333,19.8194444 21.1041667,18.5763889 20.6458333,17.6041667 L13.0625,1.47916667 C12.8402778,1.02083333 12.5104167,0.659722222 12.0729167,0.395833333 C11.6354167,0.131944444 11.1666667,0 10.6666667,0 C10.1666667,0 9.69791667,0.131944444 9.26041667,0.395833333 C8.82291667,0.659722222 8.5,1.02083333 8.29166667,1.47916667 L0.6875,17.6041667 C0.229166667,18.5763889 0,19.8194444 0,21.3333333 C0,24.2777778 1.04166667,26.7916667 3.125,28.875 C5.20833333,30.9583333 7.72222222,32 10.6666667,32 C13.6111111,32 16.125,30.9583333 18.2083333,28.875 C20.2916667,26.7916667 21.3333333,24.2777778 21.3333333,21.3333333 Z" id="path3029"></path>
            </g>
        </g>
    </g>
</svg>