<?xml version="1.0" encoding="UTF-8"?>
<svg width="300px" height="651px" viewBox="0 0 300 651" version="1.1" xmlns="http://www.w3.org/2000/svg" xmlns:xlink="http://www.w3.org/1999/xlink">
    <title>marker_map_icon</title>
    <defs>
        <radialGradient cx="50%" cy="77.7540674%" fx="50%" fy="77.7540674%" r="22.2459326%" gradientTransform="translate(0.500000,0.777541),scale(0.730000,1.000000),rotate(90.000000),scale(1.000000,2.207576),translate(-0.500000,-0.777541)" id="radialGradient-1">
            <stop stop-color="#101010" offset="0%"></stop>
            <stop stop-color="#B5B4B4" stop-opacity="0" offset="100%"></stop>
        </radialGradient>
    </defs>
    <g id="Page-1" stroke="none" stroke-width="1" fill="none" fill-rule="evenodd">
        <g id="marker_map_icon" transform="translate(0.000000, 0.159907)">
            <path d="M299.5,161.340093 C297.187,181.127093 291.687,200.127093 283,218.340093 C246.826,282.685093 211.159,347.352093 176,412.340093 C169.463,421.373093 160.629,426.373093 149.5,427.340093 C137.136,426.476093 127.636,420.809093 121,410.340093 C86.444,344.227093 51.111,278.561093 15,213.340093 C7.162,196.017093 2.329,178.017093 0.5,159.340093 C-0.687,91.8390931 28.646,43.0053931 88.5,12.8400931 C141.749,-8.54890691 192.083,-3.21560691 239.5,28.8400931 C282.104,62.5615931 302.104,106.728093 299.5,161.340093 Z M222.5,169.340093 C217.838,198.846093 201.505,219.013093 173.5,229.840093 C136.098,239.594093 106.598,228.428093 85,196.340093 C80.249,187.921093 77.416,178.921093 76.5,169.340093 C81.11,141.316093 96.444,121.482093 122.5,109.840093 C162.159,97.8360931 192.993,109.336093 215,144.340093 C219.223,152.175093 221.723,160.509093 222.5,169.340093 Z" id="Shape" fill="#E64B3B" opacity="0.997"></path>
            <path d="M222.5,169.340093 C221.723,160.509093 219.223,152.175093 215,144.340093 C192.993,109.336093 162.159,97.8360931 122.5,109.840093 C96.444,121.482093 81.11,141.316093 76.5,169.340093 C72.557,141.032093 81.891,117.866093 104.5,99.8400931 C127.522,83.9500931 152.188,80.9500931 178.5,90.8400931 C206.857,104.365093 222.19,126.865093 224.5,158.340093 C224.706,162.309093 224.039,165.975093 222.5,169.340093 Z" id="Path" fill="#C0392B" opacity="0.989"></path>
            <path d="M0.5,159.340093 C2.329,178.017093 7.162,196.017093 15,213.340093 C51.111,278.561093 86.444,344.227093 121,410.340093 C127.636,420.809093 137.136,426.476093 149.5,427.340093 C160.629,426.373093 169.463,421.373093 176,412.340093 C211.159,347.352093 246.826,282.685093 283,218.340093 C291.687,200.127093 297.187,181.127093 299.5,161.340093 C301.189,191.250093 294.689,219.250093 280,245.340093 C244.239,309.867093 208.239,374.200093 172,438.340093 C160.485,449.108093 147.652,450.941093 133.5,443.840093 C129,440.673093 125.167,436.840093 122,432.340093 C87.842,368.021093 53.175,304.021093 18,240.340093 C4.82,214.940093 -1.014,187.940093 0.5,159.340093 Z" id="Path" fill="#C0392B" opacity="0.981"></path>
            <ellipse id="Oval" fill="url(#radialGradient-1)" cx="150" cy="541.340093" rx="150" ry="109.5"></ellipse>
        </g>
    </g>
</svg>