<?xml version="1.0" encoding="UTF-8"?>
<!DOCTYPE svg PUBLIC "-//W3C//DTD SVG 1.1//EN" "http://www.w3.org/Graphics/SVG/1.1/DTD/svg11.dtd">
<svg xmlns="http://www.w3.org/2000/svg" version="1.1" width="512px" height="512px" style="shape-rendering:geometricPrecision; text-rendering:geometricPrecision; image-rendering:optimizeQuality; fill-rule:evenodd; clip-rule:evenodd" xmlns:xlink="http://www.w3.org/1999/xlink">
<g><path style="opacity:0.997" fill="#e64b3b" d="M 405.5,182.5 C 403.187,202.287 397.687,221.287 389,239.5C 352.826,303.845 317.159,368.512 282,433.5C 275.463,442.533 266.629,447.533 255.5,448.5C 243.136,447.636 233.636,441.969 227,431.5C 192.444,365.387 157.111,299.721 121,234.5C 113.162,217.177 108.329,199.177 106.5,180.5C 105.313,112.999 134.646,64.1653 194.5,34C 247.749,12.611 298.083,17.9443 345.5,50C 388.104,83.7215 408.104,127.888 405.5,182.5 Z M 328.5,190.5 C 323.838,220.006 307.505,240.173 279.5,251C 242.098,260.754 212.598,249.588 191,217.5C 186.249,209.081 183.416,200.081 182.5,190.5C 187.11,162.476 202.444,142.642 228.5,131C 268.159,118.996 298.993,130.496 321,165.5C 325.223,173.335 327.723,181.669 328.5,190.5 Z"/></g>
<g><path style="opacity:0.989" fill="#c0392b" d="M 328.5,190.5 C 327.723,181.669 325.223,173.335 321,165.5C 298.993,130.496 268.159,118.996 228.5,131C 202.444,142.642 187.11,162.476 182.5,190.5C 178.557,162.192 187.891,139.026 210.5,121C 233.522,105.11 258.188,102.11 284.5,112C 312.857,125.525 328.19,148.025 330.5,179.5C 330.706,183.469 330.039,187.135 328.5,190.5 Z"/></g>
<g><path style="opacity:0.981" fill="#c0392b" d="M 106.5,180.5 C 108.329,199.177 113.162,217.177 121,234.5C 157.111,299.721 192.444,365.387 227,431.5C 233.636,441.969 243.136,447.636 255.5,448.5C 266.629,447.533 275.463,442.533 282,433.5C 317.159,368.512 352.826,303.845 389,239.5C 397.687,221.287 403.187,202.287 405.5,182.5C 407.189,212.41 400.689,240.41 386,266.5C 350.239,331.027 314.239,395.36 278,459.5C 266.485,470.268 253.652,472.101 239.5,465C 235,461.833 231.167,458 228,453.5C 193.842,389.181 159.175,325.181 124,261.5C 110.82,236.1 104.986,209.1 106.5,180.5 Z"/></g>
</svg>
